<svg width="454" height="262" viewBox="0 0 454 262" fill="none" xmlns="http://www.w3.org/2000/svg">
<path d="M390.389 128.613C390.389 149.026 316.51 165.574 225.372 165.574C134.235 165.574 60.3555 149.026 60.3555 128.613C60.3555 124.462 60.7043 117.272 60.7043 117.272C60.7043 117.272 152.765 91.6488 225.372 91.6488C305.118 91.6488 390.273 119.133 390.273 119.133C390.273 119.133 390.389 126.06 390.389 128.613Z" fill="#04155B"/>
<path d="M417.253 208.25C406.363 223.645 350.129 238.18 342.129 239.895C283.518 252.46 258.166 254.787 258.166 254.787H155.598H155.614C157.242 254.422 279.143 226.9 305.846 220.117C337.012 212.206 355.618 205.458 363.061 200.805C368.643 197.314 359.77 191.104 343.989 192.661C327.476 194.29 284.448 198.71 236.536 194.755C206.203 192.251 180.949 182.19 163.506 167.531C158.724 163.513 153.737 158.922 150.904 152.041C99.4339 146.201 63.4744 134.495 60.5508 120.862C60.4212 120.271 60.3557 119.668 60.3555 119.063C60.3555 99.9346 125.232 84.2007 208.389 82.2996C209.347 81.7389 219.167 80.1054 204.435 78.6675C195.388 77.7833 142.843 80.5289 105.821 78.6675C102.216 78.486 69.0726 77.5041 63.4907 61.9144C61.8138 57.2351 65.7467 52.6583 71.8125 48.6049C83.2439 40.952 102.239 35.1466 105.593 33.9716L105.697 33.9343C108.242 33.0618 129.828 26.0813 132.572 25.3623C161.878 17.6838 188.624 15.1243 188.624 15.1243L246.305 22.5702C246.305 22.5702 162.775 35.3467 137.591 43.2323C136.17 43.6767 134.877 44.0816 133.735 44.4423C123.664 47.6184 114.149 51.4413 113.152 52.7211L113.077 52.8188C110.882 55.6901 111.782 57.1793 130.551 57.156C140.552 57.1421 158.2 56.444 180.6 55.5552C246.188 52.9515 269.828 65.7071 289.346 84.9662C348.711 90.5645 390.389 103.716 390.389 119.047C390.389 119.474 390.357 119.9 390.292 120.322C387.452 139.002 322.747 154.161 240.637 155.848L240.606 156.006C240.606 156.006 224.423 159.613 247.584 164.248C249.142 164.558 250.738 164.835 252.37 165.079C291.107 170.833 348.58 161.446 389.338 172.413C401.2 175.605 408.875 180.005 413.575 184.715C422.253 193.391 420.888 203.108 417.253 208.25Z" fill="url(#paint0_linear_328_1688)"/>
<path opacity="0.62" d="M225.605 144.547C301.52 144.547 363.061 132.957 363.061 118.661C363.061 104.364 301.52 92.775 225.605 92.775C149.691 92.775 88.1494 104.364 88.1494 118.661C88.1494 132.957 149.691 144.547 225.605 144.547Z" fill="url(#paint1_radial_328_1688)"/>
<path d="M246.305 22.5702C246.305 22.5702 162.776 35.3467 137.592 43.2323C136.17 43.6767 134.877 44.0816 133.735 44.4423C123.665 47.6184 114.15 51.4413 113.152 52.7211L113.077 52.8188C113.077 52.8188 89.2936 50.8876 71.8174 48.584C83.2441 40.952 102.239 35.1466 105.593 33.9716L105.698 33.9343C108.242 33.0618 129.828 26.0813 132.572 25.3623C161.878 17.6838 188.625 15.1243 188.625 15.1243L246.305 22.5702Z" fill="url(#paint2_linear_328_1688)"/>
<path d="M417.252 208.25C406.363 223.645 350.129 238.18 342.128 239.895C283.518 252.46 258.166 254.787 258.166 254.787H155.598H155.614C157.242 254.422 279.143 226.9 305.846 220.117C337.012 212.206 355.618 205.458 363.061 200.805C368.643 197.314 359.77 191.104 343.989 192.661L413.58 184.719C422.253 193.391 420.888 203.108 417.252 208.25Z" fill="url(#paint3_linear_328_1688)"/>
<mask id="mask0_328_1688" style="mask-type:luminance" maskUnits="userSpaceOnUse" x="185" y="112" width="36" height="48">
<path d="M208.964 159.95L185.252 153.349L196.8 112.253L220.514 118.854L208.964 159.95Z" fill="white"/>
</mask>
<g mask="url(#mask0_328_1688)">
<path d="M209.226 124.652C207.417 120.727 203.947 117.714 200.453 116.788L185.673 112.632L180.495 131.054L180.442 131.244L175.302 149.542L190.138 153.714C193.557 154.682 198.083 153.963 201.672 151.53C203.655 150.164 205.372 148.448 206.738 146.464C207.444 145.452 208.066 144.383 208.598 143.269C209.214 141.974 209.714 140.626 210.091 139.242C211.573 133.792 211.085 128.673 209.226 124.652Z" fill="url(#paint4_linear_328_1688)"/>
</g>
<path d="M205.319 137.894C204.943 139.279 204.444 140.627 203.826 141.922C203.758 142.064 203.686 142.208 203.616 142.348C203.18 143.219 202.685 144.06 202.137 144.866C202.081 144.952 202.023 145.035 201.965 145.119C198.413 150.194 193.348 152.958 188.41 152.828H188.129C187.964 152.828 187.794 152.807 187.626 152.793C187.424 152.777 187.219 152.753 187.017 152.723C186.963 152.723 186.908 152.709 186.852 152.698L186.675 152.672C186.608 152.672 186.536 152.649 186.466 152.632L186.191 152.579C186.024 152.546 185.859 152.507 185.689 152.465L185.377 152.381C184.873 152.239 184.378 152.066 183.896 151.862L183.826 151.834L183.761 151.804L183.419 151.648C183.333 151.609 183.247 151.564 183.163 151.523C183.079 151.481 183.028 151.457 182.963 151.42C182.898 151.383 182.812 151.341 182.73 151.299C182.649 151.257 182.54 151.194 182.444 151.139C182.349 151.083 182.323 151.069 182.263 151.029L182.161 150.966C182.089 150.925 182.023 150.88 181.956 150.836C181.902 150.805 181.849 150.771 181.798 150.734C181.709 150.676 181.619 150.613 181.53 150.55C179.432 149.034 177.767 146.995 176.7 144.635C175.434 141.894 174.798 138.905 174.837 135.886C174.853 134.304 175.031 132.728 175.367 131.182C175.404 131.007 175.444 130.835 175.486 130.66C175.513 130.532 175.544 130.407 175.579 130.281C175.613 130.155 175.641 130.027 175.679 129.899C177.1 124.671 180.191 120.311 184.003 117.693C184.107 117.622 184.211 117.552 184.317 117.484C187.029 115.706 190.154 114.749 193.364 115.024C194.158 115.092 194.944 115.235 195.711 115.45C203.484 117.637 208.242 127.147 205.319 137.894Z" fill="url(#paint5_linear_328_1688)"/>
<path d="M202.281 137.369C199.6 145.931 192.048 151.262 185.698 149.273C179.349 147.283 176.395 138.73 179.07 130.167C181.744 121.604 189.071 116.274 195.415 118.265C201.76 120.257 204.965 128.806 202.281 137.369Z" fill="url(#paint6_linear_328_1688)"/>
<path d="M202.939 128.25C202.939 128.25 201.272 119.901 193.636 118.71C187.673 117.779 181.239 121.809 178.855 131.112C177.981 134.523 177.753 128.571 178.39 127.056C179.027 125.541 185.449 114.908 194.557 117.877C202.225 120.378 202.939 128.25 202.939 128.25Z" fill="url(#paint7_linear_328_1688)"/>
<path d="M183.47 148.861C183.47 148.861 180.053 147.09 178.386 143.742C177.348 141.668 176.479 139.688 176.479 135.156C176.479 135.156 176.758 131.323 177.669 128.955C178.755 126.139 180.314 124.068 180.053 123.947C179.588 123.715 175.525 129.432 176.002 136.826C176.304 141.522 177.669 146.599 183.154 149.466C183.154 149.466 183.619 149.698 183.751 149.466C183.791 149.41 183.815 149.346 183.821 149.278C183.827 149.211 183.815 149.143 183.786 149.081C183.758 149.02 183.713 148.967 183.658 148.928C183.602 148.89 183.537 148.866 183.47 148.861Z" fill="url(#paint8_linear_328_1688)"/>
<path d="M198.056 137.748L193.241 139.393C192.981 139.487 192.753 139.656 192.588 139.879L189.062 144.147C188.636 144.705 186.504 144.705 186.015 143.751L186.08 138.022C186.039 137.75 185.927 137.494 185.757 137.278L182.771 133.636C182.126 132.852 182.45 131.337 183.347 130.953L187.578 129.139C187.828 129.024 188.041 128.843 188.194 128.615L191.497 122.996C192.451 123.228 193.5 123.1 193.716 124.362L194.697 130.116C194.742 130.405 194.867 130.676 195.058 130.898L198.793 134.814C199.582 135.703 199.156 137.373 198.056 137.748Z" fill="url(#paint9_linear_328_1688)"/>
<path d="M196.625 137.515L191.81 139.158C191.55 139.253 191.323 139.422 191.157 139.644L187.87 143.909C187.173 144.819 185.996 144.423 185.796 143.225L184.886 137.785C184.847 137.513 184.736 137.256 184.565 137.04L181.577 133.397C180.935 132.615 181.258 131.098 182.153 130.716L186.386 128.906C186.637 128.792 186.85 128.611 187.003 128.382L190.287 123.691C191.033 122.628 192.308 122.868 192.522 124.131L193.508 129.883C193.552 130.173 193.676 130.445 193.866 130.667L197.355 134.581C198.16 135.463 197.725 137.136 196.625 137.515Z" fill="#F8DC66"/>
<path d="M208.743 143.123C208.696 143.227 208.65 143.332 208.599 143.435C208.068 144.556 207.446 145.633 206.738 146.653C205.364 148.648 203.636 150.375 201.64 151.748C198.028 154.201 193.472 154.922 190.034 153.947L185.238 152.6L185.201 152.588C184.702 152.446 184.212 152.274 183.733 152.074L183.599 152.016L183.254 151.86C183.166 151.82 183.08 151.776 182.994 151.732C182.908 151.688 182.859 151.667 182.794 151.63C182.729 151.592 182.64 151.55 182.561 151.509C182.482 151.467 182.371 151.402 182.275 151.343C182.213 151.311 182.152 151.275 182.094 151.236L181.989 151.171C181.917 151.132 181.85 151.085 181.782 151.041C181.728 151.009 181.676 150.975 181.626 150.939C181.536 150.878 181.443 150.818 181.354 150.752C179.241 149.219 177.567 147.158 176.498 144.775C175.636 142.89 175.071 140.883 174.823 138.825L177.731 139.549L201.852 145.091H202.138L208.743 143.123Z" fill="url(#paint10_linear_328_1688)"/>
<mask id="mask1_328_1688" style="mask-type:luminance" maskUnits="userSpaceOnUse" x="127" y="91" width="36" height="48">
<path d="M150.777 138.427L127.642 131.987L138.908 91.8931L162.043 98.3338L150.777 138.427Z" fill="white"/>
</mask>
<g mask="url(#mask1_328_1688)">
<path d="M151.032 103.99C149.267 100.163 145.881 97.2215 142.473 96.3117L128.053 92.2584L123.002 110.231L122.95 110.417L117.934 128.268L132.409 132.338C135.745 133.283 140.159 132.571 143.662 130.209C145.596 128.876 147.271 127.201 148.604 125.267C149.292 124.278 149.899 123.235 150.418 122.149C151.021 120.886 151.509 119.571 151.877 118.221C153.321 112.911 152.844 107.911 151.032 103.99Z" fill="url(#paint11_linear_328_1688)"/>
</g>
<path d="M147.225 116.909C146.857 118.26 146.369 119.575 145.766 120.839C145.701 120.978 145.631 121.118 145.564 121.253C145.138 122.103 144.655 122.924 144.12 123.71C144.064 123.794 144.01 123.878 143.952 123.957C140.48 128.906 135.542 131.605 130.723 131.479C130.632 131.479 130.541 131.479 130.448 131.479C130.286 131.479 130.121 131.461 129.958 131.447C129.795 131.433 129.56 131.409 129.365 131.379C129.311 131.379 129.258 131.365 129.204 131.354L129.03 131.328C128.965 131.328 128.895 131.307 128.825 131.291L128.558 131.24C128.395 131.207 128.232 131.167 128.069 131.126L127.764 131.047H127.753C127.261 130.908 126.778 130.74 126.306 130.542L126.239 130.514L126.176 130.483L125.843 130.334L125.592 130.211C125.525 130.179 125.462 130.146 125.399 130.109C125.336 130.072 125.25 130.034 125.167 129.992C125.083 129.951 124.98 129.89 124.887 129.834C124.794 129.778 124.769 129.767 124.711 129.73L124.611 129.667C124.541 129.627 124.476 129.583 124.411 129.539C124.357 129.509 124.306 129.475 124.257 129.439C124.169 129.383 124.083 129.322 123.997 129.262C121.949 127.783 120.324 125.793 119.282 123.491C118.055 120.822 117.438 117.913 117.477 114.975C117.493 113.43 117.664 111.89 117.989 110.38C118.024 110.212 118.063 110.042 118.105 109.872C118.133 109.747 118.161 109.626 118.194 109.502C118.226 109.379 118.256 109.254 118.291 109.13C119.687 104.03 122.694 99.774 126.413 97.2215L126.72 97.0168C129.367 95.2833 132.414 94.3502 135.547 94.6178C136.321 94.6844 137.087 94.8231 137.835 95.032C145.429 97.1471 150.071 106.424 147.225 116.909Z" fill="url(#paint12_linear_328_1688)"/>
<path d="M144.257 116.397C141.638 124.75 134.256 129.951 128.076 128.01C121.896 126.069 118.991 117.723 121.61 109.37C124.229 101.017 131.379 95.8161 137.556 97.759C143.733 99.7019 146.873 108.044 144.257 116.397Z" fill="url(#paint13_linear_328_1688)"/>
<path d="M144.899 107.499C144.899 107.499 143.27 99.3552 135.828 98.1918C130.013 97.282 123.734 101.217 121.408 110.291C120.554 113.619 120.333 107.813 120.943 106.336C121.552 104.858 127.829 94.4852 136.714 97.3797C144.201 99.8206 144.899 107.499 144.899 107.499Z" fill="url(#paint14_linear_328_1688)"/>
<path d="M125.904 127.608C125.904 127.608 122.571 125.881 120.943 122.623C119.931 120.601 119.082 118.668 119.082 114.247C119.082 114.247 119.354 110.508 120.245 108.197C121.303 105.449 122.824 103.436 122.571 103.311C122.106 103.078 118.152 108.663 118.617 115.876C118.912 120.457 120.245 125.416 125.595 128.208C125.595 128.208 126.06 128.441 126.178 128.208C126.218 128.154 126.243 128.09 126.25 128.023C126.257 127.956 126.246 127.888 126.218 127.827C126.19 127.765 126.146 127.713 126.091 127.674C126.036 127.636 125.971 127.613 125.904 127.608Z" fill="url(#paint15_linear_328_1688)"/>
<path d="M140.133 116.769L135.437 118.372C135.184 118.463 134.962 118.625 134.797 118.838L131.358 122.998C130.944 123.554 128.85 123.554 128.385 122.623L128.448 117.039C128.408 116.773 128.3 116.522 128.134 116.311L125.22 112.76C124.592 111.995 124.908 110.517 125.783 110.142L129.911 108.379C130.154 108.267 130.362 108.09 130.511 107.867L133.735 102.38C134.665 102.613 135.688 102.483 135.898 103.713L136.856 109.328C136.9 109.61 137.022 109.874 137.207 110.091L140.852 113.91C141.621 114.77 141.205 116.402 140.133 116.769Z" fill="url(#paint16_linear_328_1688)"/>
<path d="M138.737 116.536L134.041 118.14C133.788 118.231 133.566 118.392 133.402 118.605L130.194 122.765C129.511 123.654 128.369 123.266 128.171 122.098L127.285 116.806C127.245 116.54 127.137 116.289 126.971 116.078L124.057 112.527C123.429 111.762 123.745 110.284 124.619 109.91L128.748 108.146C128.991 108.034 129.199 107.857 129.348 107.634L132.555 103.057C133.281 102.019 134.525 102.254 134.734 103.485L135.693 109.1C135.737 109.382 135.859 109.646 136.044 109.863L139.456 113.681C140.226 114.538 139.809 116.169 138.737 116.536Z" fill="#F8DC66"/>
<path d="M150.557 122.011C150.513 122.114 150.467 122.214 150.418 122.314C149.898 123.409 149.287 124.459 148.592 125.453C147.252 127.4 145.566 129.085 143.62 130.425C140.094 132.817 135.649 133.522 132.295 132.571L127.618 131.256L127.578 131.244C127.093 131.105 126.616 130.938 126.15 130.744L126.015 130.686L125.683 130.535C125.594 130.495 125.511 130.453 125.427 130.411C125.343 130.369 125.297 130.346 125.232 130.309C125.167 130.272 125.083 130.232 125.011 130.19C124.939 130.148 124.825 130.088 124.732 130.032C124.639 129.976 124.611 129.965 124.553 129.927L124.45 129.862C124.38 129.823 124.315 129.778 124.25 129.737C124.197 129.705 124.146 129.671 124.097 129.634C124.008 129.576 123.92 129.518 123.834 129.455C121.765 127.96 120.126 125.947 119.082 123.617C118.242 121.778 117.693 119.819 117.454 117.812L120.289 118.51L143.824 123.917H144.103L150.557 122.011Z" fill="url(#paint17_linear_328_1688)"/>
<mask id="mask2_328_1688" style="mask-type:luminance" maskUnits="userSpaceOnUse" x="248" y="97" width="35" height="47">
<path d="M271.305 143.546L248.17 137.106L259.436 97.0121L282.571 103.453L271.305 143.546Z" fill="white"/>
</mask>
<g mask="url(#mask2_328_1688)">
<path opacity="0.9" d="M271.561 109.109C269.795 105.282 266.409 102.341 263.002 101.431L248.582 97.3774L243.53 115.35L243.479 115.536L238.462 133.387L252.938 137.457C256.273 138.402 260.687 137.69 264.19 135.328C266.125 133.995 267.8 132.32 269.132 130.386C269.824 129.401 270.435 128.361 270.958 127.277C271.56 126.013 272.047 124.698 272.414 123.347C273.849 118.03 273.372 113.03 271.561 109.109Z" fill="url(#paint18_linear_328_1688)"/>
</g>
<path d="M267.749 122.028C267.382 123.379 266.894 124.695 266.291 125.958C266.225 126.097 266.156 126.237 266.088 126.372C265.663 127.223 265.18 128.044 264.644 128.829C264.59 128.913 264.535 128.997 264.476 129.076C261.011 134.027 256.071 136.724 251.252 136.598C251.161 136.598 251.07 136.598 250.977 136.598C250.815 136.598 250.649 136.58 250.487 136.566C250.324 136.552 250.091 136.529 249.894 136.498C249.84 136.498 249.787 136.484 249.733 136.473L249.559 136.447C249.494 136.447 249.424 136.426 249.354 136.41L249.096 136.352C248.935 136.319 248.77 136.28 248.607 136.238L248.303 136.159C247.811 136.02 247.329 135.851 246.858 135.654L246.791 135.626L246.726 135.595L246.393 135.447L246.142 135.323C246.077 135.291 246.012 135.258 245.949 135.221C245.886 135.184 245.8 135.146 245.728 135.105C245.656 135.063 245.542 135.002 245.449 134.946C245.356 134.89 245.33 134.879 245.272 134.842L245.172 134.779C245.102 134.739 245.037 134.695 244.972 134.651C244.919 134.621 244.867 134.588 244.819 134.551C244.733 134.495 244.644 134.434 244.558 134.374C242.51 132.895 240.885 130.905 239.844 128.603C238.616 125.934 238 123.025 238.039 120.087C238.055 118.542 238.226 117.002 238.551 115.492C238.588 115.324 238.625 115.154 238.667 114.985C238.695 114.859 238.725 114.738 238.758 114.615C238.79 114.491 238.82 114.366 238.853 114.242C240.248 109.142 243.256 104.886 246.977 102.334C247.077 102.264 247.179 102.196 247.284 102.129C249.928 100.395 252.978 99.4623 256.122 99.7299C256.895 99.7965 257.661 99.9351 258.408 100.144C265.958 102.266 270.6 111.543 267.749 122.028Z" fill="url(#paint19_linear_328_1688)"/>
<path d="M264.786 121.516C262.167 129.869 254.785 135.07 248.605 133.129C242.425 131.188 239.523 122.842 242.139 114.489C244.756 106.136 251.908 100.935 258.085 102.878C264.263 104.821 267.402 113.163 264.786 121.516Z" fill="url(#paint20_linear_328_1688)"/>
<path d="M265.428 112.618C265.428 112.618 263.8 104.474 256.357 103.311C250.543 102.401 244.263 106.336 241.937 115.41C241.083 118.738 240.862 112.932 241.472 111.455C242.081 109.977 248.359 99.6042 257.243 102.499C264.73 104.94 265.428 112.618 265.428 112.618Z" fill="url(#paint21_linear_328_1688)"/>
<path d="M246.432 132.727C246.432 132.727 243.099 131 241.471 127.742C240.459 125.72 239.611 123.787 239.611 119.366C239.611 119.366 239.883 115.627 240.773 113.316C241.834 110.568 243.353 108.556 243.099 108.43C242.634 108.197 238.68 113.782 239.145 120.995C239.441 125.576 240.773 130.535 246.123 133.327C246.123 133.327 246.588 133.56 246.707 133.327C246.747 133.273 246.772 133.209 246.779 133.142C246.786 133.075 246.775 133.007 246.747 132.946C246.719 132.884 246.675 132.832 246.619 132.793C246.564 132.755 246.499 132.732 246.432 132.727Z" fill="url(#paint22_linear_328_1688)"/>
<path d="M260.662 121.888L255.966 123.491C255.713 123.582 255.491 123.744 255.327 123.957L251.887 128.126C251.473 128.673 249.38 128.673 248.914 127.742L248.977 122.158C248.938 121.892 248.829 121.641 248.663 121.43L245.749 117.879C245.121 117.114 245.437 115.636 246.312 115.261L250.44 113.498C250.684 113.385 250.892 113.208 251.043 112.986L254.264 107.499C255.194 107.732 256.218 107.601 256.427 108.832L257.385 114.447C257.429 114.729 257.551 114.993 257.736 115.21L261.383 119.028C262.151 119.889 261.737 121.521 260.662 121.888Z" fill="url(#paint23_linear_328_1688)"/>
<path d="M259.266 121.656L254.571 123.259C254.318 123.35 254.096 123.511 253.931 123.724L250.724 127.894C250.04 128.783 248.898 128.394 248.703 127.226L247.814 121.921C247.775 121.655 247.666 121.404 247.5 121.192L244.586 117.642C243.958 116.876 244.274 115.399 245.149 115.024L249.277 113.26C249.521 113.148 249.729 112.971 249.879 112.748L253.084 108.172C253.812 107.134 255.054 107.369 255.264 108.6L256.222 114.214C256.266 114.496 256.388 114.76 256.573 114.978L259.987 118.796C260.755 119.657 260.341 121.288 259.266 121.656Z" fill="#F8DC66"/>
<path d="M271.088 127.13L270.949 127.433C270.426 128.528 269.815 129.578 269.12 130.572C267.78 132.519 266.095 134.204 264.148 135.544C260.622 137.936 256.177 138.641 252.823 137.69L248.146 136.375L248.107 136.363C247.622 136.224 247.145 136.057 246.679 135.863L246.544 135.805L246.209 135.654C246.12 135.614 246.037 135.572 245.953 135.53C245.869 135.488 245.823 135.465 245.758 135.428C245.693 135.391 245.609 135.351 245.525 135.309C245.441 135.267 245.339 135.207 245.246 135.151C245.153 135.095 245.125 135.084 245.067 135.046L244.967 134.981C244.895 134.942 244.83 134.897 244.765 134.856C244.712 134.824 244.66 134.79 244.611 134.753C244.523 134.695 244.434 134.637 244.348 134.574C242.286 133.078 240.652 131.066 239.61 128.741C238.771 126.902 238.221 124.943 237.982 122.935L240.818 123.633L264.353 129.041H264.632L271.088 127.13Z" fill="url(#paint24_linear_328_1688)"/>
<mask id="mask3_328_1688" style="mask-type:luminance" maskUnits="userSpaceOnUse" x="324" y="97" width="34" height="46">
<path d="M346.981 142.964L324.425 136.684L335.41 97.5938L357.965 103.874L346.981 142.964Z" fill="white"/>
</mask>
<g mask="url(#mask3_328_1688)">
<path d="M347.232 109.388C345.51 105.666 342.208 102.79 338.887 101.908L324.827 97.9521L319.903 115.475L319.852 115.657L314.968 133.062L329.083 137.031C332.339 137.962 336.64 137.264 340.054 134.953C341.94 133.654 343.572 132.021 344.871 130.134C345.543 129.172 346.135 128.155 346.641 127.096C347.228 125.863 347.704 124.581 348.062 123.263C349.462 118.086 348.997 113.211 347.232 109.388Z" fill="url(#paint25_linear_328_1688)"/>
</g>
<path d="M343.524 121.984C343.166 123.301 342.691 124.583 342.106 125.816C342.04 125.951 341.973 126.088 341.906 126.221C341.494 127.049 341.028 127.85 340.51 128.617C340.457 128.696 340.403 128.778 340.347 128.85C336.968 133.676 332.151 136.296 327.453 136.184H327.185C327.027 136.184 326.864 136.165 326.706 136.152C326.548 136.138 326.32 136.114 326.127 136.086C326.076 136.086 326.025 136.072 325.971 136.061L325.802 136.038C325.736 136.038 325.669 136.014 325.602 136L325.341 135.949C325.183 135.919 325.025 135.879 324.876 135.84L324.578 135.761C324.099 135.625 323.628 135.46 323.169 135.267L323.101 135.239C323.081 135.229 323.06 135.219 323.039 135.211L322.713 135.065L322.48 134.944C322.415 134.911 322.352 134.881 322.292 134.846C322.231 134.811 322.148 134.772 322.076 134.732C322.004 134.693 321.894 134.632 321.806 134.579L321.634 134.476L321.534 134.413C321.466 134.376 321.403 134.332 321.338 134.29C321.287 134.261 321.237 134.228 321.189 134.192C321.106 134.139 321.02 134.078 320.936 134.018C318.939 132.576 317.354 130.638 316.338 128.394C315.143 125.791 314.543 122.954 314.582 120.089C314.595 118.583 314.762 117.083 315.08 115.61C315.114 115.446 315.151 115.281 315.191 115.115C315.219 114.994 315.247 114.882 315.28 114.754C315.312 114.626 315.34 114.521 315.375 114.391C316.729 109.419 319.666 105.27 323.283 102.78C323.38 102.71 323.48 102.645 323.58 102.58C326.16 100.891 329.132 99.9811 332.186 100.242C332.941 100.307 333.689 100.442 334.419 100.647C341.768 102.717 346.294 111.762 343.524 121.984Z" fill="url(#paint26_linear_328_1688)"/>
<path d="M340.624 121.486C338.066 129.629 330.884 134.7 324.85 132.808C318.817 130.916 315.991 122.779 318.545 114.633C321.099 106.487 328.058 101.419 334.093 103.313C340.129 105.207 343.178 113.339 340.624 121.486Z" fill="url(#paint27_linear_328_1688)"/>
<path d="M341.251 112.809C341.251 112.809 339.663 104.87 332.413 103.734C326.741 102.848 320.621 106.685 318.354 115.531C317.521 118.789 317.305 113.116 317.889 111.676C318.472 110.235 324.603 100.121 333.267 102.943C340.57 105.323 341.251 112.809 341.251 112.809Z" fill="url(#paint28_linear_328_1688)"/>
<path d="M322.729 132.417C322.729 132.417 319.473 130.732 317.894 127.556C316.907 125.583 316.079 123.698 316.079 119.389C316.079 119.389 316.345 115.743 317.214 113.491C318.245 110.81 319.726 108.849 319.48 108.725C319.026 108.493 315.172 113.944 315.626 120.976C315.914 125.444 317.214 130.283 322.429 133.001C322.429 133.001 322.894 133.234 322.999 133.001C323.038 132.948 323.063 132.886 323.07 132.82C323.077 132.755 323.066 132.688 323.038 132.628C323.011 132.569 322.967 132.517 322.913 132.48C322.858 132.443 322.795 132.421 322.729 132.417Z" fill="url(#paint29_linear_328_1688)"/>
<path d="M336.603 121.846L332.025 123.412C331.776 123.502 331.559 123.664 331.402 123.878L328.048 127.933C327.646 128.466 325.604 128.466 325.15 127.559L325.213 122.109C325.171 121.854 325.066 121.614 324.906 121.411L322.064 117.949C321.452 117.202 321.759 115.762 322.613 115.389L326.637 113.67C326.875 113.561 327.079 113.387 327.225 113.17L330.365 107.818C331.272 108.051 332.27 107.918 332.474 109.119L333.405 114.591C333.447 114.866 333.566 115.124 333.747 115.336L337.3 119.059C338.056 119.899 337.652 121.49 336.603 121.846Z" fill="url(#paint30_linear_328_1688)"/>
<path d="M335.242 121.621L330.665 123.184C330.416 123.276 330.2 123.437 330.041 123.65L326.915 127.707C326.248 128.571 325.134 128.194 324.943 127.054L324.078 121.881C324.038 121.626 323.932 121.385 323.771 121.183L320.929 117.718C320.317 116.974 320.626 115.531 321.478 115.159L325.504 113.437C325.742 113.329 325.945 113.157 326.09 112.939L329.216 108.476C329.913 107.466 331.137 107.695 331.341 108.893L332.272 114.368C332.313 114.643 332.432 114.901 332.614 115.112L335.939 118.835C336.695 119.673 336.291 121.262 335.242 121.621Z" fill="#F8DC66"/>
<path opacity="0.93" d="M346.78 126.958C346.736 127.058 346.692 127.158 346.645 127.254C346.136 128.321 345.54 129.345 344.864 130.316C343.557 132.215 341.914 133.857 340.015 135.163C336.577 137.489 332.244 138.188 328.974 137.257L324.413 135.975H324.376C323.901 135.841 323.435 135.678 322.98 135.486C322.936 135.47 322.892 135.449 322.85 135.43L322.524 135.284L322.275 135.163C322.21 135.13 322.148 135.1 322.085 135.063C322.022 135.025 321.941 134.99 321.868 134.949L321.596 134.793C321.538 134.76 321.48 134.728 321.424 134.69C321.368 134.653 321.357 134.651 321.324 134.628C321.254 134.59 321.192 134.546 321.127 134.504C321.061 134.462 321.027 134.441 320.978 134.406C320.892 134.348 320.806 134.29 320.722 134.23C318.7 132.769 317.099 130.801 316.08 128.524C315.259 126.732 314.722 124.823 314.486 122.865L317.252 123.563L340.198 128.836L340.47 128.848L346.78 126.958Z" fill="url(#paint31_linear_328_1688)"/>
<mask id="mask4_328_1688" style="mask-type:luminance" maskUnits="userSpaceOnUse" x="224" y="67" width="32" height="43">
<path d="M245.29 109.112L224.47 103.313L234.61 67.2288L255.431 73.0249L245.29 109.112Z" fill="white"/>
</mask>
<g mask="url(#mask4_328_1688)">
<path d="M245.521 78.116C243.932 74.67 240.885 72.0244 237.817 71.21L224.839 67.5616L220.295 83.7376L220.246 83.9052L215.731 99.9602L228.756 103.625C231.756 104.474 235.734 103.844 238.883 101.708C240.627 100.51 242.136 99.0033 243.337 97.2611C243.954 96.376 244.498 95.4422 244.965 94.4689C245.505 93.3304 245.943 92.146 246.274 90.9298C247.581 86.1436 247.151 81.6435 245.521 78.116Z" fill="url(#paint32_linear_328_1688)"/>
</g>
<path d="M242.09 89.7431C241.76 90.9589 241.321 92.1426 240.778 93.2799C240.718 93.4055 240.657 93.5312 240.595 93.6522C240.211 94.4175 239.778 95.1567 239.297 95.865C239.248 95.9394 239.197 96.0139 239.146 96.086C236.027 100.542 231.58 102.969 227.244 102.857L227 102.845C226.854 102.845 226.703 102.827 226.556 102.815C226.41 102.804 226.2 102.78 226.021 102.752L225.877 102.731L225.721 102.708L225.537 102.673L225.305 102.627C225.158 102.599 225.012 102.564 224.863 102.527L224.588 102.452C224.146 102.327 223.712 102.176 223.288 101.998L223.228 101.973L223.17 101.945L222.87 101.808L222.637 101.698L222.463 101.608L222.265 101.503C222.181 101.456 222.097 101.41 222.014 101.359C221.93 101.307 221.909 101.298 221.856 101.266L221.765 101.21C221.702 101.172 221.644 101.133 221.583 101.093C221.523 101.054 221.49 101.038 221.446 101.005L221.214 100.844C219.371 99.5126 217.909 97.7223 216.971 95.6509C215.866 93.249 215.309 90.6306 215.343 87.9864C215.358 86.5959 215.514 85.2105 215.808 83.8516C215.841 83.698 215.876 83.5468 215.913 83.3862C215.936 83.2746 215.964 83.1652 215.992 83.0535C216.02 82.9418 216.05 82.8208 216.081 82.7184C217.329 78.1276 220.034 74.3 223.391 71.9988L223.667 71.815C226.047 70.256 228.784 69.416 231.61 69.658C232.307 69.7169 232.997 69.8416 233.671 70.0303C240.49 71.9569 244.658 80.3055 242.09 89.7431Z" fill="url(#paint33_linear_328_1688)"/>
<path d="M239.423 89.2824C237.067 96.8004 230.433 101.482 224.863 99.7345C219.293 97.9871 216.685 90.4761 219.048 82.9581C221.412 75.4402 227.831 70.7609 233.401 72.5061C238.971 74.2512 241.779 81.7645 239.423 89.2824Z" fill="url(#paint34_linear_328_1688)"/>
<path d="M240.002 81.2735C240.002 81.2735 238.536 73.944 231.838 72.897C226.602 72.0779 220.953 75.6193 218.86 83.7865C218.092 86.7811 217.892 81.5551 218.441 80.2265C218.99 78.8978 224.639 69.5603 232.629 72.1663C239.374 74.3629 240.002 81.2735 240.002 81.2735Z" fill="url(#paint35_linear_328_1688)"/>
<path d="M222.907 99.3715C222.907 99.3715 219.907 97.8172 218.442 94.8854C217.532 93.0658 216.767 91.3254 216.767 87.3465C216.767 87.3465 217 83.9819 217.814 81.9017C218.767 79.4283 220.14 77.6181 219.907 77.5041C219.488 77.2946 215.93 82.3206 216.349 88.8124C216.614 92.9355 217.814 97.3984 222.628 99.9113C222.628 99.9113 223.047 100.121 223.154 99.9113C223.19 99.8626 223.212 99.8051 223.218 99.745C223.224 99.6848 223.214 99.624 223.189 99.569C223.164 99.5139 223.125 99.4666 223.075 99.4319C223.026 99.3972 222.968 99.3763 222.907 99.3715Z" fill="url(#paint36_linear_328_1688)"/>
<path d="M235.713 89.6175L231.485 91.0601C231.256 91.1434 231.057 91.2924 230.912 91.4883L227.814 95.2321C227.442 95.7231 225.558 95.7231 225.14 94.8854L225.198 89.8548C225.16 89.6163 225.063 89.3912 224.914 89.201L222.291 86.0039C221.725 85.3059 222.009 83.9866 222.798 83.6492L226.519 82.06C226.74 81.9587 226.927 81.7975 227.061 81.5946L229.961 76.6594C230.798 76.8688 231.719 76.7525 231.908 77.8601L232.771 82.9116C232.81 83.1655 232.919 83.4034 233.087 83.598L236.366 87.037C237.053 87.8189 236.678 89.2871 235.713 89.6175Z" fill="url(#paint37_linear_328_1688)"/>
<path d="M234.457 89.4081L230.228 90.8507C230 90.934 229.801 91.0829 229.656 91.2788L226.767 95.0227C226.153 95.8208 225.123 95.4741 224.949 94.42L224.151 89.6454C224.113 89.4069 224.016 89.1818 223.867 88.9916L221.244 85.7945C220.678 85.0965 220.962 83.7772 221.751 83.4398L225.472 81.8506C225.693 81.7493 225.88 81.588 226.014 81.3852L228.9 77.2667C229.554 76.336 230.673 76.5431 230.861 77.6506L231.724 82.7022C231.761 82.9602 231.87 83.2024 232.04 83.4002L235.11 86.8393C235.796 87.6094 235.422 89.0777 234.457 89.4081Z" fill="#F8DC66"/>
<path d="M245.095 94.3339C245.056 94.427 245.014 94.5178 244.97 94.6085C244.499 95.5934 243.95 96.5381 243.325 97.4333C242.123 99.1869 240.611 100.706 238.862 101.915C235.69 104.067 231.689 104.707 228.67 103.846L224.442 102.655H224.407C223.97 102.53 223.54 102.379 223.121 102.203L223 102.152L222.698 102.017L222.465 101.903C222.407 101.875 222.349 101.847 222.291 101.812C222.232 101.777 222.156 101.745 222.091 101.708L221.839 101.563C221.786 101.533 221.732 101.503 221.679 101.468L221.588 101.412C221.523 101.375 221.467 101.335 221.407 101.298C221.359 101.27 221.313 101.239 221.27 101.205C221.189 101.154 221.111 101.1 221.037 101.044C219.177 99.6938 217.705 97.878 216.767 95.7789C216.01 94.1242 215.514 92.362 215.297 90.5552L217.855 91.1904L239.037 96.0581H239.288L245.095 94.3339Z" fill="url(#paint38_linear_328_1688)"/>
<defs>
<linearGradient id="paint0_linear_328_1688" x1="241.567" y1="15.6246" x2="239.302" y2="255.578" gradientUnits="userSpaceOnUse">
<stop stop-color="#1F4D82"/>
<stop offset="0.21" stop-color="#3576DE"/>
<stop offset="0.52" stop-color="#0038C7"/>
<stop offset="0.87" stop-color="#002B8A"/>
<stop offset="0.99" stop-color="#001A54"/>
</linearGradient>
<radialGradient id="paint1_radial_328_1688" cx="0" cy="0" r="1" gradientUnits="userSpaceOnUse" gradientTransform="translate(226.044 118.826) rotate(90) scale(24.1557 149.022)">
<stop offset="0.01" stop-color="#0028BB"/>
<stop offset="0.28" stop-color="#050FBD" stop-opacity="0.69"/>
<stop offset="0.44" stop-color="#0800BF" stop-opacity="0.5"/>
<stop offset="0.7" stop-color="#1729C5" stop-opacity="0.21"/>
<stop offset="0.83" stop-color="#234BCA" stop-opacity="0.11"/>
<stop offset="1" stop-color="#306FCF" stop-opacity="0"/>
</radialGradient>
<linearGradient id="paint2_linear_328_1688" x1="101.886" y1="45.4847" x2="214.661" y2="17.7668" gradientUnits="userSpaceOnUse">
<stop offset="0.01" stop-color="#306DC9"/>
<stop offset="0.14" stop-color="#26569E" stop-opacity="0.86"/>
<stop offset="0.28" stop-color="#1B3E71" stop-opacity="0.72"/>
<stop offset="0.39" stop-color="#143055" stop-opacity="0.63"/>
<stop offset="0.45" stop-color="#122A4B" stop-opacity="0.6"/>
<stop offset="0.84"/>
</linearGradient>
<linearGradient id="paint3_linear_328_1688" x1="370.043" y1="152.851" x2="257.781" y2="258.69" gradientUnits="userSpaceOnUse">
<stop offset="0.21" stop-color="#0032A9"/>
<stop offset="0.59" stop-color="#122A4B" stop-opacity="0.6"/>
<stop offset="0.99"/>
</linearGradient>
<linearGradient id="paint4_linear_328_1688" x1="176.963" y1="125.142" x2="207.016" y2="146.068" gradientUnits="userSpaceOnUse">
<stop offset="0.05" stop-color="#A8700D"/>
<stop offset="0.23" stop-color="#AC7613"/>
<stop offset="0.46" stop-color="#B98523"/>
<stop offset="0.72" stop-color="#CD9F3E"/>
<stop offset="0.9" stop-color="#DFB655"/>
</linearGradient>
<linearGradient id="paint5_linear_328_1688" x1="180.607" y1="150.005" x2="200.412" y2="117.784" gradientUnits="userSpaceOnUse">
<stop offset="0.4" stop-color="#E3C95D"/>
<stop offset="0.65" stop-color="#EDDA73"/>
<stop offset="0.92" stop-color="#F9F090"/>
</linearGradient>
<linearGradient id="paint6_linear_328_1688" x1="179.872" y1="117.479" x2="193.409" y2="138.036" gradientUnits="userSpaceOnUse">
<stop offset="0.05" stop-color="#A8700D" stop-opacity="0.1"/>
<stop offset="0.14" stop-color="#AA730F" stop-opacity="0.12"/>
<stop offset="0.26" stop-color="#AE7A16" stop-opacity="0.19"/>
<stop offset="0.39" stop-color="#B68621" stop-opacity="0.31"/>
<stop offset="0.53" stop-color="#C19631" stop-opacity="0.46"/>
<stop offset="0.69" stop-color="#CFAC44" stop-opacity="0.67"/>
<stop offset="0.85" stop-color="#E0C65C" stop-opacity="0.91"/>
<stop offset="0.9" stop-color="#E6CF65"/>
</linearGradient>
<linearGradient id="paint7_linear_328_1688" x1="201.732" y1="121.853" x2="180.062" y2="125.929" gradientUnits="userSpaceOnUse">
<stop offset="0.06" stop-color="#B78420"/>
<stop offset="0.23" stop-color="#BB8A25"/>
<stop offset="0.45" stop-color="#C59A34"/>
<stop offset="0.7" stop-color="#D5B54D"/>
<stop offset="0.9" stop-color="#E6CF65"/>
</linearGradient>
<linearGradient id="paint8_linear_328_1688" x1="177.441" y1="126.786" x2="180.763" y2="148.783" gradientUnits="userSpaceOnUse">
<stop offset="0.01" stop-color="#F9F090" stop-opacity="0.1"/>
<stop offset="0.05" stop-color="#F9F194" stop-opacity="0.13"/>
<stop offset="0.12" stop-color="#FAF29F" stop-opacity="0.22"/>
<stop offset="0.2" stop-color="#FBF4B1" stop-opacity="0.37"/>
<stop offset="0.3" stop-color="#FCF8CA" stop-opacity="0.57"/>
<stop offset="0.41" stop-color="#FEFCE9" stop-opacity="0.83"/>
<stop offset="0.48" stop-color="white"/>
<stop offset="0.49" stop-color="#FFFFFE" stop-opacity="0.99"/>
<stop offset="0.53" stop-color="#FEFCE7" stop-opacity="0.78"/>
<stop offset="0.57" stop-color="#FDF9D3" stop-opacity="0.6"/>
<stop offset="0.62" stop-color="#FCF7C1" stop-opacity="0.44"/>
<stop offset="0.66" stop-color="#FBF5B2" stop-opacity="0.3"/>
<stop offset="0.72" stop-color="#FAF3A5" stop-opacity="0.19"/>
<stop offset="0.77" stop-color="#FAF29C" stop-opacity="0.11"/>
<stop offset="0.83" stop-color="#F9F195" stop-opacity="0.05"/>
<stop offset="0.9" stop-color="#F9F091" stop-opacity="0.01"/>
<stop offset="1" stop-color="#F9F090" stop-opacity="0"/>
</linearGradient>
<linearGradient id="paint9_linear_328_1688" x1="182.433" y1="133.764" x2="199.198" y2="133.764" gradientUnits="userSpaceOnUse">
<stop offset="0.05" stop-color="#A8700D"/>
<stop offset="0.23" stop-color="#AC7613"/>
<stop offset="0.46" stop-color="#B98523"/>
<stop offset="0.72" stop-color="#CD9F3E"/>
<stop offset="0.9" stop-color="#DFB655"/>
</linearGradient>
<linearGradient id="paint10_linear_328_1688" x1="192.025" y1="138.29" x2="190.77" y2="151.837" gradientUnits="userSpaceOnUse">
<stop offset="0.09" stop-color="#00B9BB" stop-opacity="0"/>
<stop offset="0.16" stop-color="#00B0BB" stop-opacity="0.17"/>
<stop offset="0.25" stop-color="#00A7BB" stop-opacity="0.36"/>
<stop offset="0.34" stop-color="#00A0BB" stop-opacity="0.49"/>
<stop offset="0.41" stop-color="#009BBB" stop-opacity="0.57"/>
<stop offset="0.48" stop-color="#009ABB" stop-opacity="0.6"/>
<stop offset="0.68" stop-color="#006FC0" stop-opacity="0.78"/>
<stop offset="0.89" stop-color="#0148C5" stop-opacity="0.94"/>
<stop offset="1" stop-color="#0139C7"/>
</linearGradient>
<linearGradient id="paint11_linear_328_1688" x1="119.556" y1="104.469" x2="148.876" y2="124.884" gradientUnits="userSpaceOnUse">
<stop offset="0.05" stop-color="#A8700D"/>
<stop offset="0.23" stop-color="#AC7613"/>
<stop offset="0.46" stop-color="#B98523"/>
<stop offset="0.72" stop-color="#CD9F3E"/>
<stop offset="0.9" stop-color="#DFB655"/>
</linearGradient>
<linearGradient id="paint12_linear_328_1688" x1="123.11" y1="128.724" x2="142.431" y2="97.2894" gradientUnits="userSpaceOnUse">
<stop offset="0.4" stop-color="#E3C95D"/>
<stop offset="0.65" stop-color="#EDDA73"/>
<stop offset="0.92" stop-color="#F9F090"/>
</linearGradient>
<linearGradient id="paint13_linear_328_1688" x1="122.394" y1="96.9912" x2="135.598" y2="117.048" gradientUnits="userSpaceOnUse">
<stop offset="0.05" stop-color="#A8700D" stop-opacity="0.1"/>
<stop offset="0.14" stop-color="#AA730F" stop-opacity="0.12"/>
<stop offset="0.26" stop-color="#AE7A16" stop-opacity="0.19"/>
<stop offset="0.39" stop-color="#B68621" stop-opacity="0.31"/>
<stop offset="0.53" stop-color="#C19631" stop-opacity="0.46"/>
<stop offset="0.69" stop-color="#CFAC44" stop-opacity="0.67"/>
<stop offset="0.85" stop-color="#E0C65C" stop-opacity="0.91"/>
<stop offset="0.9" stop-color="#E6CF65"/>
</linearGradient>
<linearGradient id="paint14_linear_328_1688" x1="143.722" y1="101.261" x2="122.579" y2="105.234" gradientUnits="userSpaceOnUse">
<stop offset="0.06" stop-color="#B78420"/>
<stop offset="0.23" stop-color="#BB8A25"/>
<stop offset="0.45" stop-color="#C59A34"/>
<stop offset="0.7" stop-color="#D5B54D"/>
<stop offset="0.9" stop-color="#E6CF65"/>
</linearGradient>
<linearGradient id="paint15_linear_328_1688" x1="120.022" y1="106.073" x2="123.262" y2="127.535" gradientUnits="userSpaceOnUse">
<stop offset="0.01" stop-color="#F9F090" stop-opacity="0.1"/>
<stop offset="0.05" stop-color="#F9F194" stop-opacity="0.13"/>
<stop offset="0.12" stop-color="#FAF29F" stop-opacity="0.22"/>
<stop offset="0.2" stop-color="#FBF4B1" stop-opacity="0.37"/>
<stop offset="0.3" stop-color="#FCF8CA" stop-opacity="0.57"/>
<stop offset="0.41" stop-color="#FEFCE9" stop-opacity="0.83"/>
<stop offset="0.48" stop-color="white"/>
<stop offset="0.49" stop-color="#FFFFFE" stop-opacity="0.99"/>
<stop offset="0.53" stop-color="#FEFCE7" stop-opacity="0.78"/>
<stop offset="0.57" stop-color="#FDF9D3" stop-opacity="0.6"/>
<stop offset="0.62" stop-color="#FCF7C1" stop-opacity="0.44"/>
<stop offset="0.66" stop-color="#FBF5B2" stop-opacity="0.3"/>
<stop offset="0.72" stop-color="#FAF3A5" stop-opacity="0.19"/>
<stop offset="0.77" stop-color="#FAF29C" stop-opacity="0.11"/>
<stop offset="0.83" stop-color="#F9F195" stop-opacity="0.05"/>
<stop offset="0.9" stop-color="#F9F091" stop-opacity="0.01"/>
<stop offset="1" stop-color="#F9F090" stop-opacity="0"/>
</linearGradient>
<linearGradient id="paint16_linear_328_1688" x1="124.889" y1="112.879" x2="141.247" y2="112.879" gradientUnits="userSpaceOnUse">
<stop offset="0.05" stop-color="#A8700D"/>
<stop offset="0.23" stop-color="#AC7613"/>
<stop offset="0.46" stop-color="#B98523"/>
<stop offset="0.72" stop-color="#CD9F3E"/>
<stop offset="0.9" stop-color="#DFB655"/>
</linearGradient>
<linearGradient id="paint17_linear_328_1688" x1="134.249" y1="117.295" x2="133.024" y2="130.511" gradientUnits="userSpaceOnUse">
<stop offset="0.09" stop-color="#00B9BB" stop-opacity="0"/>
<stop offset="0.16" stop-color="#00B0BB" stop-opacity="0.17"/>
<stop offset="0.25" stop-color="#00A7BB" stop-opacity="0.36"/>
<stop offset="0.34" stop-color="#00A0BB" stop-opacity="0.49"/>
<stop offset="0.41" stop-color="#009BBB" stop-opacity="0.57"/>
<stop offset="0.48" stop-color="#009ABB" stop-opacity="0.6"/>
<stop offset="0.65" stop-color="#0578C0" stop-opacity="0.75"/>
<stop offset="0.88" stop-color="#0A50C5" stop-opacity="0.93"/>
<stop offset="1" stop-color="#0C41C7"/>
</linearGradient>
<linearGradient id="paint18_linear_328_1688" x1="240.083" y1="109.584" x2="269.405" y2="129.999" gradientUnits="userSpaceOnUse">
<stop offset="0.05" stop-color="#A8700D"/>
<stop offset="0.23" stop-color="#AC7613"/>
<stop offset="0.46" stop-color="#B98523"/>
<stop offset="0.72" stop-color="#CD9F3E"/>
<stop offset="0.9" stop-color="#DFB655"/>
</linearGradient>
<linearGradient id="paint19_linear_328_1688" x1="243.639" y1="133.843" x2="262.96" y2="102.408" gradientUnits="userSpaceOnUse">
<stop offset="0.4" stop-color="#E3C95D"/>
<stop offset="0.65" stop-color="#EDDA73"/>
<stop offset="0.92" stop-color="#F9F090"/>
</linearGradient>
<linearGradient id="paint20_linear_328_1688" x1="242.923" y1="102.11" x2="256.128" y2="122.167" gradientUnits="userSpaceOnUse">
<stop offset="0.05" stop-color="#A8700D" stop-opacity="0.1"/>
<stop offset="0.14" stop-color="#AA730F" stop-opacity="0.12"/>
<stop offset="0.26" stop-color="#AE7A16" stop-opacity="0.19"/>
<stop offset="0.39" stop-color="#B68621" stop-opacity="0.31"/>
<stop offset="0.53" stop-color="#C19631" stop-opacity="0.46"/>
<stop offset="0.69" stop-color="#CFAC44" stop-opacity="0.67"/>
<stop offset="0.85" stop-color="#E0C65C" stop-opacity="0.91"/>
<stop offset="0.9" stop-color="#E6CF65"/>
</linearGradient>
<linearGradient id="paint21_linear_328_1688" x1="264.251" y1="106.38" x2="243.109" y2="110.353" gradientUnits="userSpaceOnUse">
<stop offset="0.06" stop-color="#B78420"/>
<stop offset="0.23" stop-color="#BB8A25"/>
<stop offset="0.45" stop-color="#C59A34"/>
<stop offset="0.7" stop-color="#D5B54D"/>
<stop offset="0.9" stop-color="#E6CF65"/>
</linearGradient>
<linearGradient id="paint22_linear_328_1688" x1="240.55" y1="111.192" x2="243.79" y2="132.654" gradientUnits="userSpaceOnUse">
<stop offset="0.01" stop-color="#F9F090" stop-opacity="0.1"/>
<stop offset="0.05" stop-color="#F9F194" stop-opacity="0.13"/>
<stop offset="0.12" stop-color="#FAF29F" stop-opacity="0.22"/>
<stop offset="0.2" stop-color="#FBF4B1" stop-opacity="0.37"/>
<stop offset="0.3" stop-color="#FCF8CA" stop-opacity="0.57"/>
<stop offset="0.41" stop-color="#FEFCE9" stop-opacity="0.83"/>
<stop offset="0.48" stop-color="white"/>
<stop offset="0.49" stop-color="#FFFFFE" stop-opacity="0.99"/>
<stop offset="0.53" stop-color="#FEFCE7" stop-opacity="0.78"/>
<stop offset="0.57" stop-color="#FDF9D3" stop-opacity="0.6"/>
<stop offset="0.62" stop-color="#FCF7C1" stop-opacity="0.44"/>
<stop offset="0.66" stop-color="#FBF5B2" stop-opacity="0.3"/>
<stop offset="0.72" stop-color="#FAF3A5" stop-opacity="0.19"/>
<stop offset="0.77" stop-color="#FAF29C" stop-opacity="0.11"/>
<stop offset="0.83" stop-color="#F9F195" stop-opacity="0.05"/>
<stop offset="0.9" stop-color="#F9F091" stop-opacity="0.01"/>
<stop offset="1" stop-color="#F9F090" stop-opacity="0"/>
</linearGradient>
<linearGradient id="paint23_linear_328_1688" x1="245.421" y1="117.998" x2="261.776" y2="117.998" gradientUnits="userSpaceOnUse">
<stop offset="0.05" stop-color="#A8700D"/>
<stop offset="0.23" stop-color="#AC7613"/>
<stop offset="0.46" stop-color="#B98523"/>
<stop offset="0.72" stop-color="#CD9F3E"/>
<stop offset="0.9" stop-color="#DFB655"/>
</linearGradient>
<linearGradient id="paint24_linear_328_1688" x1="254.777" y1="122.414" x2="253.553" y2="135.63" gradientUnits="userSpaceOnUse">
<stop offset="0.09" stop-color="#00B9BB" stop-opacity="0"/>
<stop offset="0.16" stop-color="#00B0BB" stop-opacity="0.17"/>
<stop offset="0.25" stop-color="#00A7BB" stop-opacity="0.36"/>
<stop offset="0.34" stop-color="#00A0BB" stop-opacity="0.49"/>
<stop offset="0.41" stop-color="#009BBB" stop-opacity="0.57"/>
<stop offset="0.48" stop-color="#009ABB" stop-opacity="0.6"/>
<stop offset="0.68" stop-color="#006FC0" stop-opacity="0.78"/>
<stop offset="0.89" stop-color="#0148C5" stop-opacity="0.94"/>
<stop offset="1" stop-color="#0139C7"/>
</linearGradient>
<linearGradient id="paint25_linear_328_1688" x1="316.542" y1="109.848" x2="345.128" y2="129.753" gradientUnits="userSpaceOnUse">
<stop offset="0.05" stop-color="#A8700D"/>
<stop offset="0.23" stop-color="#AC7613"/>
<stop offset="0.46" stop-color="#B98523"/>
<stop offset="0.72" stop-color="#CD9F3E"/>
<stop offset="0.9" stop-color="#DFB655"/>
</linearGradient>
<linearGradient id="paint26_linear_328_1688" x1="320.008" y1="133.504" x2="338.845" y2="102.855" gradientUnits="userSpaceOnUse">
<stop offset="0.4" stop-color="#E3C95D"/>
<stop offset="0.65" stop-color="#EDDA73"/>
<stop offset="0.92" stop-color="#F9F090"/>
</linearGradient>
<linearGradient id="paint27_linear_328_1688" x1="319.308" y1="102.564" x2="332.184" y2="122.118" gradientUnits="userSpaceOnUse">
<stop offset="0.05" stop-color="#A8700D" stop-opacity="0.1"/>
<stop offset="0.14" stop-color="#AA730F" stop-opacity="0.12"/>
<stop offset="0.26" stop-color="#AE7A16" stop-opacity="0.19"/>
<stop offset="0.39" stop-color="#B68621" stop-opacity="0.31"/>
<stop offset="0.53" stop-color="#C19631" stop-opacity="0.46"/>
<stop offset="0.69" stop-color="#CFAC44" stop-opacity="0.67"/>
<stop offset="0.85" stop-color="#E0C65C" stop-opacity="0.91"/>
<stop offset="0.9" stop-color="#E6CF65"/>
</linearGradient>
<linearGradient id="paint28_linear_328_1688" x1="340.102" y1="106.727" x2="319.488" y2="110.602" gradientUnits="userSpaceOnUse">
<stop offset="0.06" stop-color="#B78420"/>
<stop offset="0.23" stop-color="#BB8A25"/>
<stop offset="0.45" stop-color="#C59A34"/>
<stop offset="0.7" stop-color="#D5B54D"/>
<stop offset="0.9" stop-color="#E6CF65"/>
</linearGradient>
<linearGradient id="paint29_linear_328_1688" x1="316.996" y1="111.417" x2="320.155" y2="132.344" gradientUnits="userSpaceOnUse">
<stop offset="0.01" stop-color="#F9F090" stop-opacity="0.1"/>
<stop offset="0.05" stop-color="#F9F194" stop-opacity="0.13"/>
<stop offset="0.12" stop-color="#FAF29F" stop-opacity="0.22"/>
<stop offset="0.2" stop-color="#FBF4B1" stop-opacity="0.37"/>
<stop offset="0.3" stop-color="#FCF8CA" stop-opacity="0.57"/>
<stop offset="0.41" stop-color="#FEFCE9" stop-opacity="0.83"/>
<stop offset="0.48" stop-color="white"/>
<stop offset="0.49" stop-color="#FFFFFE" stop-opacity="0.99"/>
<stop offset="0.53" stop-color="#FEFCE7" stop-opacity="0.78"/>
<stop offset="0.57" stop-color="#FDF9D3" stop-opacity="0.6"/>
<stop offset="0.62" stop-color="#FCF7C1" stop-opacity="0.44"/>
<stop offset="0.66" stop-color="#FBF5B2" stop-opacity="0.3"/>
<stop offset="0.72" stop-color="#FAF3A5" stop-opacity="0.19"/>
<stop offset="0.77" stop-color="#FAF29C" stop-opacity="0.11"/>
<stop offset="0.83" stop-color="#F9F195" stop-opacity="0.05"/>
<stop offset="0.9" stop-color="#F9F091" stop-opacity="0.01"/>
<stop offset="1" stop-color="#F9F090" stop-opacity="0"/>
</linearGradient>
<linearGradient id="paint30_linear_328_1688" x1="321.743" y1="118.056" x2="337.691" y2="118.056" gradientUnits="userSpaceOnUse">
<stop offset="0.05" stop-color="#A8700D"/>
<stop offset="0.23" stop-color="#AC7613"/>
<stop offset="0.46" stop-color="#B98523"/>
<stop offset="0.72" stop-color="#CD9F3E"/>
<stop offset="0.9" stop-color="#DFB655"/>
</linearGradient>
<linearGradient id="paint31_linear_328_1688" x1="330.867" y1="122.36" x2="329.673" y2="135.246" gradientUnits="userSpaceOnUse">
<stop offset="0.09" stop-color="#00B9BB" stop-opacity="0"/>
<stop offset="0.16" stop-color="#00B0BB" stop-opacity="0.17"/>
<stop offset="0.25" stop-color="#00A7BB" stop-opacity="0.36"/>
<stop offset="0.34" stop-color="#00A0BB" stop-opacity="0.49"/>
<stop offset="0.41" stop-color="#009BBB" stop-opacity="0.57"/>
<stop offset="0.48" stop-color="#009ABB" stop-opacity="0.6"/>
<stop offset="0.68" stop-color="#006FC0" stop-opacity="0.78"/>
<stop offset="0.89" stop-color="#0148C5" stop-opacity="0.94"/>
<stop offset="1" stop-color="#0139C7"/>
</linearGradient>
<linearGradient id="paint32_linear_328_1688" x1="217.192" y1="78.5437" x2="243.579" y2="96.9171" gradientUnits="userSpaceOnUse">
<stop offset="0.05" stop-color="#A8700D"/>
<stop offset="0.23" stop-color="#AC7613"/>
<stop offset="0.46" stop-color="#B98523"/>
<stop offset="0.72" stop-color="#CD9F3E"/>
<stop offset="0.9" stop-color="#DFB655"/>
</linearGradient>
<linearGradient id="paint33_linear_328_1688" x1="220.393" y1="100.377" x2="237.782" y2="72.0846" gradientUnits="userSpaceOnUse">
<stop offset="0.4" stop-color="#E3C95D"/>
<stop offset="0.65" stop-color="#EDDA73"/>
<stop offset="0.92" stop-color="#F9F090"/>
</linearGradient>
<linearGradient id="paint34_linear_328_1688" x1="219.746" y1="71.8173" x2="231.631" y2="89.8664" gradientUnits="userSpaceOnUse">
<stop offset="0.05" stop-color="#A8700D" stop-opacity="0.1"/>
<stop offset="0.14" stop-color="#AA730F" stop-opacity="0.12"/>
<stop offset="0.26" stop-color="#AE7A16" stop-opacity="0.19"/>
<stop offset="0.39" stop-color="#B68621" stop-opacity="0.31"/>
<stop offset="0.53" stop-color="#C19631" stop-opacity="0.46"/>
<stop offset="0.69" stop-color="#CFAC44" stop-opacity="0.67"/>
<stop offset="0.85" stop-color="#E0C65C" stop-opacity="0.91"/>
<stop offset="0.9" stop-color="#E6CF65"/>
</linearGradient>
<linearGradient id="paint35_linear_328_1688" x1="238.941" y1="75.6589" x2="219.913" y2="79.2369" gradientUnits="userSpaceOnUse">
<stop offset="0.06" stop-color="#B78420"/>
<stop offset="0.23" stop-color="#BB8A25"/>
<stop offset="0.45" stop-color="#C59A34"/>
<stop offset="0.7" stop-color="#D5B54D"/>
<stop offset="0.9" stop-color="#E6CF65"/>
</linearGradient>
<linearGradient id="paint36_linear_328_1688" x1="217.614" y1="79.9891" x2="220.531" y2="99.306" gradientUnits="userSpaceOnUse">
<stop offset="0.01" stop-color="#F9F090" stop-opacity="0.1"/>
<stop offset="0.05" stop-color="#F9F194" stop-opacity="0.13"/>
<stop offset="0.12" stop-color="#FAF29F" stop-opacity="0.22"/>
<stop offset="0.2" stop-color="#FBF4B1" stop-opacity="0.37"/>
<stop offset="0.3" stop-color="#FCF8CA" stop-opacity="0.57"/>
<stop offset="0.41" stop-color="#FEFCE9" stop-opacity="0.83"/>
<stop offset="0.48" stop-color="white"/>
<stop offset="0.49" stop-color="#FFFFFE" stop-opacity="0.99"/>
<stop offset="0.53" stop-color="#FEFCE7" stop-opacity="0.78"/>
<stop offset="0.57" stop-color="#FDF9D3" stop-opacity="0.6"/>
<stop offset="0.62" stop-color="#FCF7C1" stop-opacity="0.44"/>
<stop offset="0.66" stop-color="#FBF5B2" stop-opacity="0.3"/>
<stop offset="0.72" stop-color="#FAF3A5" stop-opacity="0.19"/>
<stop offset="0.77" stop-color="#FAF29C" stop-opacity="0.11"/>
<stop offset="0.83" stop-color="#F9F195" stop-opacity="0.05"/>
<stop offset="0.9" stop-color="#F9F091" stop-opacity="0.01"/>
<stop offset="1" stop-color="#F9F090" stop-opacity="0"/>
</linearGradient>
<linearGradient id="paint37_linear_328_1688" x1="221.995" y1="86.1156" x2="236.715" y2="86.1156" gradientUnits="userSpaceOnUse">
<stop offset="0.05" stop-color="#A8700D"/>
<stop offset="0.23" stop-color="#AC7613"/>
<stop offset="0.46" stop-color="#B98523"/>
<stop offset="0.72" stop-color="#CD9F3E"/>
<stop offset="0.9" stop-color="#DFB655"/>
</linearGradient>
<linearGradient id="paint38_linear_328_1688" x1="230.417" y1="90.0898" x2="229.314" y2="101.984" gradientUnits="userSpaceOnUse">
<stop offset="0.09" stop-color="#00B9BB" stop-opacity="0"/>
<stop offset="0.16" stop-color="#00B0BB" stop-opacity="0.17"/>
<stop offset="0.25" stop-color="#00A7BB" stop-opacity="0.36"/>
<stop offset="0.34" stop-color="#00A0BB" stop-opacity="0.49"/>
<stop offset="0.41" stop-color="#009BBB" stop-opacity="0.57"/>
<stop offset="0.48" stop-color="#009ABB" stop-opacity="0.6"/>
<stop offset="0.51" stop-color="#0195BD" stop-opacity="0.62"/>
<stop offset="0.74" stop-color="#0B6ED0" stop-opacity="0.83"/>
<stop offset="0.91" stop-color="#1255DC" stop-opacity="0.95"/>
<stop offset="1" stop-color="#144CE0"/>
</linearGradient>
</defs>
</svg>
