<svg width="1000" height="930" viewBox="0 0 1000 930" fill="none" xmlns="http://www.w3.org/2000/svg">
<path d="M271.695 554.777C271.695 554.777 241.335 542.193 228.175 588.215C223.737 604.301 218.456 620.142 212.355 635.675C212.355 635.675 200.85 657.247 200.85 661.562C185.637 677.676 168.765 692.138 150.514 704.707C118.96 726.582 75.4983 748.356 29.7067 769.425C-3.3714 784.641 -104.72 849.172 -160.248 921.225C-201.092 974.222 -282.378 1323.12 -282.378 1323.12H1046.21C1046.21 1323.12 1028.95 1216.09 1022.05 1177.87C1000.48 1058.5 978.904 986.59 957.331 924.748C957.331 924.748 929.402 888.362 905.557 865.783C878.232 839.896 789.065 789.56 753.11 776.616C753.11 776.616 667.898 725.172 640.932 697.516C630.434 686.744 622.236 677.698 616.339 670.91C612.576 666.573 607.991 663.024 602.849 660.467C597.708 657.91 592.112 656.395 586.382 656.01L518.687 651.494L442.464 604.035L406.509 579.586L344.668 514.868L338.915 486.104L304.399 490.419L271.695 554.777Z" fill="black"/>
<path d="M245.433 591.091C245.433 591.091 253.372 611.873 256.939 616.979C259.355 620.416 268.444 629.922 268.444 629.922C268.444 629.922 258.377 654.371 323.095 739.224C347.055 770.633 373.33 799.742 403.633 825.514C450.014 864.949 465.474 868.66 520.125 903.176L436.711 907.49L425.205 874.412C422.717 867.538 413.326 862.706 406.106 863.827C393.566 865.783 381.212 874.585 366.24 884.48C343.229 899.696 320.218 920.434 317.342 920.434C311.144 920.434 230.649 725.59 232.49 661.562C232.49 661.562 232.849 623.091 245.433 591.091Z" fill="#E20005"/>
<path d="M268.444 904.614C268.444 904.614 202.288 729.156 203.726 686.011C203.726 686.011 141.352 733.715 108.806 749.291C76.2604 764.866 13.8866 798.678 -26.3823 829.829C-66.6513 860.979 -122.74 920.765 -128.493 930.501C-128.493 930.501 -50.2849 981.988 -6.24785 1032.61C-6.24785 1032.61 -93.9767 972.208 -138.56 939.13C-138.56 939.13 -191.773 1094.45 -242.109 1323.12H21.0775C21.0775 1323.12 58.4702 1177.42 81.481 1133.28C115.695 1067.85 189.948 992.242 268.444 904.614Z" fill="#E20005"/>
<path d="M508.62 930.501L537.383 1133.28H571.9L544.574 940.568L531.631 929.062L508.62 930.501Z" fill="#E20005"/>
<path d="M554.641 924.749L584.843 1146.23L528.754 1147.67L494.238 937.692L434.352 940.094C430.814 940.233 427.318 939.295 424.324 937.406C421.33 935.516 418.98 932.762 417.583 929.509L413.599 920.19C413.045 918.903 412.243 917.738 411.237 916.762C410.232 915.785 409.044 915.017 407.741 914.502C406.438 913.986 405.046 913.732 403.645 913.756C402.244 913.779 400.862 914.079 399.577 914.638L387.007 920.118C364.473 929.932 345.187 945.941 331.393 966.283C289.312 1028.43 199.613 1169.41 180.715 1268.47L173.797 1323.12H820.978L794.817 1173.55C794.817 1173.55 767.938 1098.97 743.043 1054.18C726.216 1023.9 683.473 971.432 657.572 940.569C651.201 933.016 643.074 927.142 633.904 923.461C624.735 919.781 614.802 918.405 604.978 919.456L554.641 924.749Z" fill="#E20005"/>
<path d="M938.635 931.939C938.635 931.939 914.445 902.025 901.242 885.918C891.664 874.24 809.012 814.009 737.29 789.56C737.29 789.56 686.954 752.167 645.247 717.651C645.247 717.651 671.666 772.934 676.887 789.56C683.876 811.78 698.014 880.323 698.014 880.323C698.014 880.323 735.09 918.708 777.559 966.456C811.673 1004.81 851.323 1052.08 862.412 1068.57C862.412 1068.57 859.535 980.435 865.288 943.445C868.581 922.189 879.67 1101.64 879.67 1101.64L921.377 1323.12L1022.05 1326C1022.05 1326 1010.54 1121.78 938.635 931.939Z" fill="#E20005"/>
<path d="M579.968 669.17C579.968 669.17 588.597 656.068 610.457 689.017C632.317 721.965 638.056 749.42 658.19 818.453C678.325 887.485 672.572 880.165 672.572 880.165C672.572 880.165 616.483 839.896 610.73 847.087C604.978 854.278 612.168 885.917 609.292 890.232C606.416 894.547 536.966 904.614 536.966 904.614C536.966 904.614 577.767 834.373 592.034 769.425C604.978 710.46 579.968 669.17 579.968 669.17Z" fill="#E20005"/>
<path d="M759.582 435.049C756.36 457.585 744.984 477.633 733.076 497.696C725.727 510.05 718.177 522.418 712.208 535.391C712.166 535.448 712.132 535.511 712.108 535.578C710.569 538.929 709.131 542.323 707.793 545.774C704.37 554.82 701.408 571.877 693.411 584.605C672.543 617.841 638.358 650.876 628.693 653.638C624.379 654.86 612.873 655.507 598.65 655.651C568.534 655.953 526.741 653.94 518.673 650.042C506.822 644.289 476.002 627.937 453.955 611.211C438.983 599.864 372.511 551.714 351.513 516.536C351.197 516.004 350.88 515.472 350.607 514.954C350.334 514.436 350.248 514.307 350.075 513.991C349.72 513.358 349.39 512.725 349.083 512.092C348.468 510.894 347.916 509.665 347.429 508.41C346.935 507.233 346.513 506.028 346.163 504.801C346.048 504.398 345.933 503.995 345.847 503.607C345.761 503.219 345.645 502.801 345.574 502.399C337.275 460.476 340.137 428.52 340.137 428.52L283.027 303.657L309.001 281.121L415.325 188.905L603.151 111.588C604.733 111.905 639.695 119.153 668.099 129.738C681.575 134.757 693.569 140.525 699.826 146.666C707.376 154.087 718.306 177.716 722.232 189.034C722.232 189.034 722.232 189.149 722.232 189.221C727.717 206.153 732.117 223.418 735.406 240.909C735.399 240.952 735.399 240.996 735.406 241.039C737.391 251.264 739.016 261.403 740.008 270.349C740.123 271.327 740.21 272.535 740.31 273.93C740.497 276.691 740.655 280.2 740.799 284.227C741.691 308.676 742.108 351.822 745.114 360.235C748.867 370.791 763.666 406.458 759.582 435.049Z" fill="#39FC00"/>
<path d="M740.957 285.694L740.238 285.766L736.916 286.053C607.121 182.375 455.407 293.244 455.407 293.244L359.74 347.018L309.015 282.645L415.34 190.429L603.166 113.112C604.748 113.429 639.71 120.677 668.114 131.262L709.001 142.681L722.247 190.558C722.247 190.558 722.247 190.673 722.247 190.745C727.731 207.677 732.132 224.942 735.421 242.433C735.414 242.476 735.414 242.52 735.421 242.563C738.297 255.118 740.44 266.379 740.397 271.456C740.397 272.506 740.397 273.857 740.397 275.454C740.655 278.158 740.814 281.667 740.957 285.694Z" fill="#2BBD00"/>
<path d="M535.945 411.318C535.945 411.318 517.249 435.767 446.778 424.262L449.655 408.24C449.655 408.24 534.507 399.813 535.945 411.318Z" fill="#2BBD00"/>
<path d="M487.047 302.017C487.047 302.017 532.752 295.416 547.292 331.787C561.832 368.159 481.294 307.77 481.294 307.77L487.047 302.017Z" fill="#2BBD00"/>
<path d="M418.015 581.023C418.015 581.023 430.958 570.554 429.52 558.53C428.082 546.507 419.453 528.89 433.835 510.553C448.216 492.216 460.067 480.121 457.737 468.011C455.407 455.902 419.827 486.104 419.827 486.104L401.13 547.341L418.015 581.023Z" fill="#2BBD00"/>
<path d="M541.698 578.147C546.012 575.271 554.009 576.867 567.585 579.585C581.967 582.462 594.91 573.833 600.663 582.462C606.416 591.091 588.582 593.651 583.405 593.967C575.02 594.485 558.956 592.529 550.327 588.215C542.086 584.101 539.483 581.656 541.698 578.147Z" fill="#2BBD00"/>
<path d="M722.304 190.501C729.107 210.176 737.29 245.929 740.167 271.816C741.792 286.385 741.605 351.175 745.2 361.702C748.796 372.229 763.666 407.896 759.582 436.487C753.829 476.555 722.333 508.77 707.808 547.227C704.385 556.273 701.422 573.33 693.426 586.058C672.558 619.294 638.372 652.329 628.708 655.09C615.347 658.901 530.538 657.219 518.687 651.495C506.837 645.771 476.016 629.39 453.969 612.664C436.855 599.72 352.491 538.655 345.588 503.851C337.29 461.929 340.152 429.972 340.152 429.972L283.042 305.11L415.354 190.357L603.18 113.041C603.367 113.185 684.293 132.025 699.912 148.133C707.261 155.726 718.378 179.183 722.304 190.501Z" stroke="black" stroke-width="11.5054" stroke-miterlimit="10" stroke-linecap="round"/>
<path d="M437.617 492.504L469.789 585.339L456.845 615.54L449.655 609.788L461.16 583.901L441.025 526.373H436.711L429.52 503.363L432.396 501.924L431.677 496.157L437.617 492.504Z" fill="black"/>
<path d="M675.448 378.241C675.448 378.241 697.021 409.881 709.965 445.835C709.965 445.835 694.145 514.868 666.819 568.08C666.819 568.08 672.572 605.473 672.572 611.226L678.325 604.035C678.325 604.035 675.448 581.024 674.01 570.957C674.01 570.957 700.674 512.739 717.156 445.835C717.156 445.835 698.459 401.252 685.516 378.241H675.448Z" fill="black"/>
<path d="M701.336 491.857H708.527L699.897 517.744H694.145L701.336 491.857Z" fill="black"/>
<path d="M507.886 515.314C507.886 515.314 500.465 532.572 502.393 536.628C504.32 540.683 534.507 559.452 540.26 560.89C546.012 562.328 586.281 563.852 594.911 562.328C619.36 558.013 642.37 549.384 643.809 547.946C645.247 546.508 646.685 537.879 646.685 537.879L648.799 554.03C648.799 554.03 616.483 565.204 604.978 566.643C578.571 570.093 551.753 568.63 525.878 562.328C518.328 560.358 507.182 553.915 501.055 550.147C499.785 549.363 498.286 549.037 496.805 549.223C495.325 549.409 493.952 550.095 492.915 551.168L483.826 560.53L492.038 536.628L507.886 515.314Z" fill="#2BBD00"/>
<path d="M630.39 303.743C632.073 303.571 628.664 319.851 628.664 319.851C628.664 319.851 626.723 333.988 625.04 334.232C623.358 334.477 619.388 328.94 623.099 315.536C626.809 302.132 630.39 303.743 630.39 303.743Z" fill="black"/>
<path d="M530.049 303.542C531.285 301.169 537.613 305.541 541.295 313.178C544.977 320.815 548.687 328.451 546.76 330.321C544.833 332.191 528.107 307.31 530.049 303.542Z" fill="black"/>
<path d="M422.329 241.614C423.969 243.311 473.758 226.398 485.609 222.918C496.726 219.653 516.602 214.62 550.327 224.356C584.052 234.092 615.85 231.921 625.112 228.671C632.303 227.232 647.073 223.436 662.505 227.232C687.86 233.46 693.728 241.801 695.583 240.176C697.438 238.551 666.661 217.165 648.123 217.165C629.585 217.165 612.413 224.356 592.034 224.356C571.655 224.356 543.711 212.851 524.44 211.412C516.76 210.837 496.453 212.534 481.294 218.603C445.34 232.985 421.207 240.464 422.329 241.614Z" fill="black"/>
<path d="M465.474 201.345C465.474 201.345 514.373 189.25 538.822 191.278C563.271 193.306 577.652 201.216 594.91 199.907C612.169 198.598 633.885 192.126 648.123 194.154C662.663 196.225 668.258 208.536 682.639 212.85C682.639 212.85 660.319 190.429 648.123 188.401C635.927 186.374 608.3 194.154 592.034 194.154C575.768 194.154 557.518 186.834 543.136 185.525C527.316 184.087 495.676 186.963 465.474 201.345Z" fill="black"/>
<path d="M636.618 290.728C638.056 294.827 659.628 290.512 674.01 293.389C688.392 296.265 704.212 300.579 705.65 299.141C707.088 297.703 691.268 290.512 675.448 287.636C659.628 284.76 635.021 286.644 636.618 290.728Z" fill="black"/>
<path d="M524.167 292.123C524.641 293.748 499.717 295.676 499.717 295.676C499.717 295.676 478.26 298.379 477.785 296.754C477.311 295.129 484.976 289.362 505.556 288.7C526.137 288.039 524.167 292.123 524.167 292.123Z" fill="black"/>
<path d="M704.212 342.286C702.285 338.432 650.712 340.331 636.474 351.376C636.474 351.376 632.303 350.916 633.741 363.859C635.179 376.803 645.247 379.679 652.438 379.679C659.628 379.679 685.516 381.117 685.516 381.117C685.516 381.117 695.741 380.585 699.897 376.803C704.054 373.02 699.897 346.601 699.897 346.601C699.897 346.601 705.65 345.163 704.212 342.286Z" fill="black"/>
<path d="M639.494 356.668C639.494 356.668 646.685 352.253 652.438 352.354C652.438 352.354 649.561 371.05 671.134 373.926C671.134 373.926 646.685 375.365 640.932 369.612C636.618 365.297 639.494 356.668 639.494 356.668Z" fill="white"/>
<path d="M682.639 373.926C682.639 373.926 692.707 373.926 695.583 366.735C695.583 366.735 696.144 370.431 694.145 372.488C692.146 374.545 682.639 373.926 682.639 373.926Z" fill="white"/>
<path d="M645.333 548.464C646.944 550.65 626.55 560.89 606.416 563.766C586.281 566.643 551.765 568.081 528.754 560.89C504.003 553.153 494.238 542.194 497.114 539.317C501.429 535.003 508.62 547.946 531.631 555.137C545.624 559.452 577.652 563.766 609.292 558.014C640.932 552.261 642.528 544.682 645.333 548.464Z" fill="black"/>
<path d="M507.527 512.38C510.202 511.79 497.114 532.126 494.238 537.879C491.362 543.631 487.047 560.89 482.733 560.89C480.575 560.89 480.216 558.013 480.403 555.137C480.621 551.961 481.497 548.866 482.977 546.048C487.637 537.001 502.867 513.43 507.527 512.38Z" fill="black"/>
<path d="M646.541 538.569C649.561 538.209 650.999 549.384 650.999 555.137C650.999 560.89 640.644 539.317 646.541 538.569Z" fill="black"/>
<path d="M599.225 583.901C601.871 589.208 583.405 591.092 570.462 589.654C557.518 588.216 544.574 582.463 544.574 579.587C544.574 576.71 564.709 582.463 574.776 582.463C584.843 582.463 597.787 581.025 599.225 583.901Z" fill="black"/>
<path d="M418.115 227.06L414.52 310.057L463.101 401.41C463.101 401.41 437.89 464.92 426.644 484.666C416.922 501.737 380.809 548.464 380.809 548.464C380.809 548.464 339.375 525.251 335.319 449.431C331.264 373.61 336.355 313.091 316.062 293.173C295.769 273.254 352.549 245.166 352.549 245.166L418.115 227.06Z" fill="#333333" stroke="black" stroke-width="7.19089" stroke-miterlimit="10"/>
<path d="M453.969 460.217C461.16 486.622 425.867 494.92 419.453 516.306C410.824 545.07 429.52 560.889 415.138 573.833C406.667 581.455 384.074 563.464 369.117 545.07C361.376 535.49 355.077 524.831 350.42 513.43C350.42 513.43 367.304 476.756 393.566 461.655C420.603 446.109 449.655 444.397 453.969 460.217Z" fill="#474747" stroke="black" stroke-width="5.75271" stroke-miterlimit="10"/>
<path d="M344.667 476.037C343.934 477.375 344.667 500.486 344.667 500.486C344.667 500.486 379.284 432.633 447.166 439.594C448.319 439.714 449.481 439.467 450.485 438.888C451.49 438.31 452.286 437.43 452.761 436.372L464.036 411.319L403.633 314.961C403.633 314.961 358.647 310.258 328.848 313.523L333.162 327.905C333.162 327.905 343.229 323.59 369.117 330.781C369.117 330.781 368.8 343.984 369.117 349.477C370.555 373.926 379.184 404.128 379.184 404.128L399.318 431.454C399.318 431.454 361.926 444.397 344.667 476.037Z" fill="#474747" stroke="black" stroke-width="5.75271" stroke-miterlimit="10"/>
<path d="M387.813 228.671C387.813 228.671 403.633 225.535 403.633 224.946C403.633 224.356 402.612 278.158 402.295 295.416C402.266 296.821 401.694 298.16 400.699 299.152C399.704 300.144 398.364 300.712 396.96 300.738L329.365 301.989C327.975 302.015 326.616 301.577 325.504 300.743C324.392 299.909 323.589 298.728 323.224 297.387L320.219 286.198L325.971 270.378L328.071 283.019C328.286 284.3 328.959 285.459 329.964 286.282C330.969 287.104 332.238 287.534 333.536 287.492L380.723 286.37C382.242 286.312 383.683 285.678 384.751 284.596C385.82 283.514 386.436 282.066 386.475 280.546L387.813 228.671Z" fill="#474747" stroke="black" stroke-width="5.75271" stroke-miterlimit="10"/>
<path d="M737.722 270.377L724.346 215.497L711 167.821C711 167.821 686.393 129.824 623.674 128.918C560.955 128.012 467.2 205.846 467.2 205.846C467.2 205.846 438.35 238.378 352.549 259.347C352.549 259.347 276.325 368.03 293.785 423.155C301.493 447.46 312.136 468.53 314.408 484.35C317.601 506.426 310.597 518.664 310.597 518.664C310.597 518.664 264.863 489.326 233.928 419.948C213.06 373.15 201.367 305.153 205.725 226.93C207.724 191.306 222.135 132.701 325.856 45.7916C325.856 45.7916 339.202 20.9974 367.808 22.9102C367.808 22.9102 444.491 -13.8353 571.828 5.75272C596.622 9.56389 659.557 51.5155 674.787 70.5858C739.62 72.4842 833.058 110.625 848.303 143.041C873.37 196.297 827.334 207.86 737.722 270.377Z" fill="black"/>
<path d="M827.334 137.317C827.334 137.317 777.76 91.5541 695.77 85.8302C625.385 80.926 577.552 99.1765 545.135 122.058C512.719 144.939 470.767 196.426 444.074 213.584C417.382 230.741 358.273 249.811 352.549 251.681C352.549 251.681 415.469 165.879 539.411 104.857C539.411 104.857 499.459 133.463 468.94 167.778C438.422 202.092 409.788 219.264 409.788 219.264C409.788 219.264 430.757 215.453 457.449 190.659C475.944 173.487 490.527 159.594 503.04 148.333C537.383 117.513 551.636 107.432 585.174 93.4813C599.845 87.2312 615.207 82.7462 630.937 80.1206C650.136 77.1436 675.42 75.576 712.913 80.1206C775.848 87.7286 823.581 127.782 827.334 137.317Z" fill="#E20005"/>
<path d="M653.876 70.5857C621.04 69.1686 588.189 73.014 556.569 81.9761C514.545 94.0711 470.091 120.203 430.728 154.431C342.999 230.655 331.58 255.492 310.597 287.909C292.979 315.177 282.38 319.506 271.32 379.679C269.077 391.86 268.847 442.959 264.13 431.453C247.087 390.12 214.067 295.157 222.897 219.308C232.432 137.332 331.58 57.225 331.58 57.225C331.58 57.225 343.086 30.5324 365.895 32.4452C365.895 32.4452 437.157 -2.40185 529.847 9.56379C542.545 11.1122 555.144 13.3786 567.585 16.352C604.82 25.5707 630.937 47.7043 653.876 70.5857Z" fill="#E20005"/>
<path d="M560.624 25.3837C556.382 25.8726 563.817 30.7768 570.505 42.0521C575.97 51.2709 583.448 62.7907 573.122 65.5663C562.796 68.342 555.116 55.3697 549.982 46.0215C548.817 43.893 547.853 41.822 546.962 39.7654C545.409 36.2275 542.906 33.3655 540.001 33.5957C533.544 34.0703 537.671 40.0243 539.239 42.7712C540.806 45.5181 557.489 68.5721 538.29 72.0381C513.38 76.5253 509.756 42.0809 509.814 37.6513C509.986 26.9657 515.566 23.816 508.534 21.1986C500.609 18.3222 498.768 32.704 499.013 44.2094C499.301 57.153 508.304 75.5904 524.9 79.7899C540.562 83.7449 554.225 80.509 555.936 64.8329C555.936 64.8329 568.621 78.2223 578.774 74.3968C587.864 70.9883 590.28 62.9776 577.595 42.311C566.737 24.5783 561.746 25.2542 560.624 25.3837Z" fill="#FFC72C"/>
<path d="M381.542 57.685C381.542 57.685 386.993 70.4416 391.02 71.8654C395.047 73.2892 394.198 66.5873 389.582 60.9496C384.965 55.312 382.707 51.774 381.542 57.685Z" fill="black"/>
<path d="M367.261 39.7945C367.261 39.7945 374.941 51.2999 379.155 52.019C383.369 52.7381 381.327 46.2663 375.818 41.5491C370.31 36.8319 367.348 33.7685 367.261 39.7945Z" fill="black"/>
<path d="M395.004 78.6108C395.004 78.6108 400.354 91.4106 404.366 92.8631C408.379 94.3157 407.588 87.6138 403.072 81.9474C398.556 76.2809 396.154 72.6999 395.004 78.6108Z" fill="black"/>
<path d="M410.177 99.5795C410.177 99.5795 415.541 112.394 419.554 113.832C423.566 115.27 422.775 108.597 418.259 102.916C413.743 97.2353 411.399 93.683 410.177 99.5795Z" fill="black"/>
<path d="M425.436 122.461C425.436 122.461 430.786 135.275 434.798 136.713C438.811 138.152 438.02 131.478 433.518 125.798C429.017 120.117 426.644 116.565 425.436 122.461Z" fill="black"/>
<path d="M402.554 145.343C402.554 145.343 407.947 158.2 411.917 159.638C415.886 161.076 415.138 154.403 410.637 148.722C406.135 143.042 403.777 139.504 402.554 145.343Z" fill="black"/>
<path d="M385.397 118.65C385.397 118.65 390.747 131.464 394.759 132.902C398.772 134.34 397.981 127.667 393.465 121.986C388.949 116.305 386.619 112.739 385.397 118.65Z" fill="black"/>
<path d="M371.993 95.7682C371.993 95.7682 377.343 108.582 381.355 110.021C385.368 111.459 384.577 104.786 380.061 99.1048C375.545 93.424 373.273 89.8717 371.993 95.7682Z" fill="black"/>
<path d="M360.603 74.7853C360.603 74.7853 365.967 87.5851 369.965 89.0377C373.963 90.4902 373.187 83.7883 368.685 78.1219C364.184 72.4555 361.825 68.8888 360.603 74.7853Z" fill="black"/>
<path d="M345.358 55.7294C345.358 55.7294 350.708 68.5292 354.72 69.9818C358.733 71.4344 357.942 64.7324 353.426 59.066C348.91 53.3996 346.58 49.8185 345.358 55.7294Z" fill="black"/>
<path d="M360.488 373.927C355.382 387.475 377.429 427.571 391.897 433.496C406.365 439.422 423.091 419.301 453.969 414.196C484.847 409.09 512.33 423.429 525.878 418.51C539.426 413.592 557.432 389.085 558.956 355.231C560.207 327.431 513.884 313.624 495.849 300.839C477.814 288.053 464.036 275.829 432.713 285.163C405.071 293.389 398.082 319.276 392.127 333.658C386.173 348.04 366.485 358.107 360.488 373.927Z" fill="black"/>
<path d="M548.544 369.454C543.956 386.223 533.587 399.239 524.339 402.532C512.373 406.717 481.194 393.903 453.868 398.218C426.543 402.532 412.535 424.896 399.692 419.79C386.849 414.685 369.677 386.094 374.165 374.459C379.428 360.825 398.254 347.68 403.503 335.34C403.561 335.216 403.618 335.072 403.676 334.909C408.782 322.541 411.514 301.083 438.911 293.202C466.639 285.277 476.75 298.207 492.742 309.237C508.735 320.268 551.708 329.947 550.874 353.821C550.712 359.105 549.93 364.352 548.544 369.454Z" fill="#606060"/>
<path d="M548.544 369.454C543.956 386.223 533.587 399.239 524.339 402.532C512.373 406.66 484.171 395.499 456.845 399.814C429.52 404.128 412.593 424.881 399.75 419.747C386.907 414.613 369.735 386.05 374.222 374.416C379.486 360.782 398.312 347.637 403.561 335.297C403.618 335.173 403.676 335.029 403.734 334.866C403.734 334.866 394.213 358.423 395.104 368.706C395.996 378.989 406.61 399.152 412.003 401.151C419.913 404.028 435.489 393.63 435.489 393.63C435.489 393.63 451.984 393.457 463.519 364.219L470.048 379.205C470.048 379.205 496.798 397.484 502.939 397.7C509.08 397.915 529.704 389.89 533.27 384.325C536.837 378.759 535.557 376.429 542.992 371.165L548.544 369.454Z" fill="#474747"/>
<path d="M439.257 344.947C448.964 346.054 456.831 354.352 457.205 365.541C457.306 371.294 455.201 376.867 451.323 381.117C449.769 383.025 447.814 384.568 445.597 385.637C443.38 386.706 440.955 387.274 438.494 387.301C437.678 387.318 436.861 387.284 436.049 387.2C431.161 386.769 426.611 384.524 423.295 380.907C419.978 377.29 418.136 372.563 418.13 367.656C417.727 355.373 426.097 345.134 436.826 344.803C437.639 344.795 438.451 344.843 439.257 344.947ZM438.149 336.677C436.97 336.548 433.72 336.26 432.497 336.303C417.267 336.763 405.373 350.685 405.934 367.483C406.437 382.886 417.296 395.297 430.886 396.836C432.066 396.966 435.316 397.253 436.538 397.21C451.769 396.75 463.662 382.828 463.116 366.03C462.598 350.627 451.711 338.216 438.149 336.677Z" fill="black"/>
<path d="M510.202 322.311C526.022 324.094 537.527 339.439 536.434 358.265C535.845 368.332 533.558 375.71 527.618 382.786C521.866 389.531 515.811 391.544 507.757 391.659C506.895 391.661 506.035 391.599 505.183 391.473C489.363 389.675 476.779 378.169 476.419 359.358C476.088 339.094 489.722 322.426 506.822 322.195C507.95 322.168 509.079 322.206 510.202 322.311ZM506.247 314.055C504.809 313.897 500.077 313.121 498.596 313.135C477.34 314.861 460.614 335.384 460.168 358.509C460.542 381.52 476.074 400.346 495.691 402.575C497.129 402.733 504.694 403.496 506.175 403.467C527.748 403.179 545.006 382.858 544.603 358.107C544.229 335.096 525.907 316.285 506.247 314.055Z" fill="black"/>
<path d="M322.719 499.035C346.332 496.894 361.261 448.693 356.065 391.374C350.868 334.056 327.514 289.325 303.902 291.465C280.289 293.606 265.36 341.807 270.556 399.126C275.752 456.445 299.106 501.176 322.719 499.035Z" fill="black"/>
<path d="M316.765 482.396C334.406 480.8 345.158 440.292 340.781 391.92C336.405 343.547 318.556 305.627 300.916 307.223C283.275 308.819 272.523 349.327 276.9 397.7C281.276 446.072 299.125 483.992 316.765 482.396Z" fill="#606060"/>
<path d="M306.191 472.82C323.784 471.225 334.907 435.304 331.034 392.587C327.162 349.871 309.761 316.536 292.168 318.131C274.575 319.726 263.453 355.647 267.325 398.363C271.198 441.079 288.599 474.415 306.191 472.82Z" fill="black"/>
<path d="M306.213 463.046C319.414 461.858 327.474 431.552 324.217 395.357C320.959 359.161 307.617 330.782 294.416 331.97C281.215 333.158 273.154 363.464 276.412 399.659C279.669 435.855 293.012 464.234 306.213 463.046Z" fill="#474747"/>
<path d="M314.955 428.951C312.87 444.44 307.965 454.838 301.35 455.471C297.179 455.831 292.98 452.192 289.212 445.706C287.71 443.043 286.393 440.28 285.271 437.436C284.351 435.078 283.459 432.547 282.654 429.857C281.848 427.168 280.956 423.86 280.209 420.61C279.619 417.964 279.072 415.202 278.598 412.355C278.08 409.133 277.606 405.811 277.26 402.402C277.16 401.482 277.059 400.59 276.987 399.67C276.815 397.7 276.671 395.729 276.556 393.802C276.354 390.135 276.268 386.611 276.311 383.131C276.354 379.65 276.484 376.63 276.714 373.567C277.012 369.596 277.531 365.644 278.267 361.731C280.698 349.219 285.213 341.05 291.009 340.561C294.389 340.273 297.812 342.617 300.961 346.961C302.716 349.437 304.228 352.076 305.477 354.842C306.593 357.246 307.578 359.709 308.426 362.22C309.418 365.096 310.324 368.073 311.158 371.28C311.791 373.811 312.395 376.443 312.927 379.19C313.56 382.326 314.092 385.605 314.538 388.97C314.869 391.386 315.156 393.874 315.372 396.376C315.372 396.808 315.444 397.239 315.473 397.671C315.775 401.238 315.962 404.732 316.034 408.126C316.106 411.334 316.034 414.454 315.962 417.46C315.789 421.53 315.444 425.37 314.955 428.951Z" fill="#474747"/>
<path d="M314.538 388.956L278.583 412.355C278.066 409.133 277.591 405.811 277.246 402.403L312.913 379.19C313.56 382.311 314.092 385.59 314.538 388.956Z" fill="black"/>
<path d="M316.034 408.112L282.668 429.843C281.762 426.967 280.971 423.846 280.223 420.596L315.487 397.585C315.775 401.252 315.904 404.718 316.034 408.112Z" fill="black"/>
<path d="M314.955 428.951L289.211 445.706C287.709 443.043 286.393 440.28 285.271 437.436L315.904 417.46C315.789 421.53 315.444 425.37 314.955 428.951Z" fill="black"/>
<path d="M311.158 371.266L276.556 393.787C276.354 390.12 276.268 386.597 276.311 383.116L308.426 362.205C309.418 365.024 310.324 368.058 311.158 371.266Z" fill="black"/>
<path d="M305.477 354.827L276.714 373.524C277.012 369.553 277.531 365.601 278.267 361.688L300.961 346.917C302.717 349.403 304.23 352.052 305.477 354.827Z" fill="black"/>
<path d="M307.275 206.048C315.199 222.76 314.308 239.126 305.132 243.527C295.957 247.928 282.121 237.875 274.168 221.163C266.215 204.452 267.25 187.395 276.426 183.037C285.602 178.679 299.379 189.351 307.275 206.048Z" fill="black"/>
<path d="M290.779 201.143C293.512 202.722 295.844 204.913 297.59 207.542C299.336 210.172 300.451 213.17 300.846 216.302C301.138 219.178 300.536 222.074 299.124 224.596C297.711 227.117 295.555 229.143 292.951 230.396C283.962 234.711 269.839 247.208 265.05 280.301C258.65 324.482 274.513 365.355 298.387 377.047C299.891 377.799 301.226 378.85 302.309 380.136C303.392 381.422 304.201 382.916 304.686 384.525C307.074 392.277 309.001 405.868 296.934 413.16C279.403 423.73 255.227 391.587 250.51 383.778C245.217 375.019 223.846 341.999 229.8 282.933C235.395 227.462 261.828 206.853 277.001 200.137C279.203 199.156 281.613 198.735 284.016 198.911C286.42 199.087 288.743 199.853 290.779 201.143Z" fill="#474747"/>
<path d="M276.972 200.137C276.972 200.137 258.104 208.666 248.022 225.794C237.94 242.923 226.219 282.703 227.226 293.849C228.233 304.995 235.51 345.94 268.732 372.014C301.954 398.088 303.636 382.081 303.636 382.081C303.636 382.081 284.336 368.965 277.634 356.367C270.932 343.768 262.993 303.859 264.043 288.916C265.093 273.973 262.749 227.707 293.986 209.14C293.986 209.169 292.721 196.11 276.972 200.137Z" fill="#606060"/>
<path d="M289.298 419.143C283.358 419.143 275.736 416.482 266.287 408.299C258.906 401.696 252.452 394.124 247.101 385.791L246.598 384.957C228.923 355.891 221.933 321.433 225.86 282.544C231.957 222.026 262.49 202.28 275.347 196.599C278.136 195.352 281.19 194.814 284.236 195.035C287.283 195.256 290.227 196.228 292.807 197.864C299.753 202.308 303.838 208.536 304.614 215.899C304.988 219.569 304.223 223.265 302.421 226.485C300.62 229.704 297.87 232.29 294.547 233.891C286.939 237.573 273.478 248.546 268.804 280.862C262.921 321.404 276.642 362.119 300.012 373.567C301.993 374.55 303.752 375.929 305.179 377.618C306.606 379.308 307.672 381.272 308.31 383.389C312.812 398.073 309.36 410.125 298.847 416.467C295.972 418.223 292.667 419.149 289.298 419.143ZM282.97 202.783C281.444 202.781 279.935 203.099 278.54 203.718C267.006 208.823 239.321 226.858 233.64 283.321C229.886 320.483 236.516 353.331 253.271 380.916L253.803 381.779C258.729 389.425 264.66 396.376 271.435 402.445C278.109 408.198 287.586 414.238 294.892 409.837C304.298 404.085 303.377 393.557 300.961 385.662C300.626 384.559 300.071 383.535 299.33 382.653C298.588 381.77 297.675 381.047 296.647 380.527C269.983 367.483 254.738 324.151 261.167 279.754C266.359 243.886 282.222 231.245 291.225 226.901C293.116 226 294.684 224.537 295.713 222.712C296.743 220.888 297.184 218.79 296.977 216.705C296.445 211.714 293.67 207.572 288.708 204.408C286.987 203.336 284.997 202.773 282.97 202.783Z" fill="black"/>
<path d="M229.412 316.903C233.367 312.518 238.661 309.565 244.47 308.504C248.885 307.67 256.565 307.425 259.125 311.998C260.951 315.278 265.97 312.344 264.144 309.122C260.405 302.449 251.2 301.744 244.498 302.693C237.121 303.728 230.333 307.297 225.299 312.789C222.796 315.551 226.895 319.678 229.412 316.903Z" fill="black"/>
<path d="M231.368 297.703C231.368 295.057 235.51 294.381 237.423 293.849C240.684 292.825 244.073 292.263 247.49 292.181C252.279 292.181 257.83 294.324 259.34 299.372C260.433 302.938 266.057 301.414 264.964 297.818C262.591 290.052 254.508 286.313 246.843 286.414C242.333 286.631 237.877 287.493 233.611 288.974C229.498 290.297 225.601 293.015 225.615 297.761C225.615 301.5 231.44 301.514 231.368 297.761V297.703Z" fill="black"/>
<path d="M233.079 279.711C232.504 276.964 235.841 275.224 237.94 274.491C241.201 273.284 244.689 272.822 248.151 273.139C253.444 273.743 259.038 277.525 259.412 283.206C259.671 286.917 265.496 286.945 265.165 283.206C264.532 273.901 256.349 267.861 247.519 267.213C239.465 266.638 225.155 270.464 227.384 281.207C228.146 284.874 233.755 283.321 232.993 279.654L233.079 279.711Z" fill="black"/>
<path d="M265.985 212.362C266.92 211.326 268.141 210.59 269.494 210.248C271.339 209.562 273.28 209.169 275.247 209.083C279.044 209.083 281.474 211.758 283.229 214.835C286.551 220.689 287.198 229.462 280.669 233.431C277.476 235.373 280.395 240.406 283.545 238.45C285.595 237.178 287.344 235.476 288.672 233.463C290 231.449 290.876 229.171 291.239 226.787C291.965 221.291 290.706 215.717 287.687 211.067C284.811 206.494 280.496 203.057 274.916 203.287C269.839 203.488 264.072 205.214 260.966 209.442C260.767 209.771 260.637 210.135 260.582 210.515C260.527 210.894 260.548 211.281 260.644 211.652C260.741 212.023 260.911 212.371 261.144 212.676C261.377 212.981 261.668 213.236 262.001 213.426C262.672 213.798 263.462 213.897 264.204 213.701C264.946 213.506 265.584 213.031 265.985 212.376V212.362Z" fill="black"/>
<path d="M253.775 224.701C254.983 221.422 259.283 220.386 262.404 220.803C266.131 221.477 269.451 223.57 271.666 226.642C273.9 229.779 275.029 233.568 274.875 237.416C274.722 241.263 273.294 244.951 270.817 247.899C268.343 250.689 272.442 254.816 274.93 252.012C277.731 248.817 279.603 244.917 280.344 240.733C281.084 236.55 280.664 232.244 279.13 228.282C276.095 220.688 268.329 214.202 259.786 214.936C257.265 215.035 254.826 215.864 252.766 217.321C250.706 218.779 249.113 220.803 248.18 223.148C248.074 223.516 248.042 223.902 248.086 224.283C248.131 224.663 248.251 225.031 248.44 225.365C248.629 225.699 248.883 225.991 249.186 226.225C249.49 226.46 249.837 226.631 250.208 226.729C250.951 226.917 251.738 226.811 252.405 226.433C253.072 226.055 253.568 225.435 253.789 224.701H253.775Z" fill="black"/>
<path d="M243.995 241.182C248.511 236.595 255.63 234.524 261.469 237.875C264.053 239.281 265.987 241.639 266.862 244.447C267.984 248.273 267.222 252.386 266.546 256.211C266.358 256.954 266.464 257.742 266.841 258.409C267.219 259.076 267.84 259.571 268.574 259.792C268.942 259.899 269.328 259.931 269.709 259.886C270.089 259.842 270.458 259.721 270.791 259.532C271.125 259.344 271.417 259.09 271.651 258.786C271.886 258.483 272.057 258.135 272.155 257.765C273.046 252.76 273.967 247.395 272.327 242.434C270.958 238.373 268.135 234.961 264.403 232.855C256.32 228.196 246.224 230.612 239.882 237.069C237.25 239.744 241.32 243.872 243.995 241.182Z" fill="black"/>
<path d="M239.45 255.996C240.299 253.608 243.19 252.501 245.52 252.213C248.578 251.953 251.646 252.603 254.336 254.083C257.314 255.687 259.743 258.149 261.307 261.149C262.871 264.149 263.499 267.549 263.109 270.91C263.109 271.673 263.412 272.404 263.951 272.944C264.49 273.483 265.222 273.786 265.985 273.786C266.74 273.761 267.457 273.45 267.991 272.916C268.525 272.382 268.836 271.665 268.861 270.91C269.285 266.296 268.276 261.664 265.973 257.645C263.67 253.625 260.184 250.413 255.99 248.445C248.511 245.051 236.977 245.353 233.784 254.443C233.677 254.811 233.645 255.197 233.69 255.578C233.735 255.958 233.855 256.326 234.044 256.66C234.233 256.994 234.487 257.286 234.79 257.52C235.094 257.755 235.441 257.926 235.812 258.024C236.555 258.215 237.344 258.111 238.012 257.733C238.68 257.355 239.175 256.732 239.393 255.996H239.45Z" fill="black"/>
<path d="M232.49 328.164C243.138 327.948 253.717 326.382 263.971 323.504C267.581 322.498 266.042 316.874 262.433 317.895C252.678 320.633 242.618 322.131 232.49 322.354C228.75 322.426 228.736 328.25 232.49 328.106V328.164Z" fill="black"/>
<path d="M235.639 343.725C242.054 344.329 248.684 344.89 254.983 343.15C260.46 341.778 265.214 338.381 268.286 333.643C270.242 330.436 265.208 327.517 263.252 330.767C257.615 340.014 244.844 338.835 235.639 337.958C234.876 337.958 234.145 338.261 233.605 338.8C233.066 339.34 232.763 340.071 232.763 340.834C232.785 341.59 233.095 342.309 233.629 342.844C234.164 343.379 234.883 343.689 235.639 343.711V343.725Z" fill="black"/>
<path d="M239.681 358.595C246.613 357.545 253.875 358.394 260.462 355.618C266.215 353.231 270.688 348.744 271.435 342.43C271.435 341.667 271.132 340.936 270.593 340.396C270.054 339.857 269.322 339.554 268.559 339.554C267.804 339.579 267.087 339.89 266.553 340.424C266.019 340.958 265.708 341.675 265.683 342.43C265.165 346.745 260.592 349.621 256.809 350.815C250.841 352.655 244.34 352.051 238.199 352.986C237.831 353.087 237.486 353.26 237.185 353.494C236.883 353.729 236.63 354.02 236.442 354.352C236.06 355.022 235.96 355.816 236.164 356.56C236.368 357.304 236.859 357.936 237.53 358.318C238.2 358.699 238.994 358.799 239.738 358.595H239.681Z" fill="black"/>
<path d="M272.903 355.518C274.772 361.947 269.077 368.102 263.583 370.475C260.579 371.738 257.282 372.138 254.063 371.63C250.844 371.122 247.831 369.726 245.361 367.599C242.485 365.154 238.401 369.253 241.248 371.712C244.644 374.716 248.837 376.674 253.32 377.35C257.803 378.026 262.386 377.392 266.517 375.523C274.384 371.928 281.115 362.939 278.511 353.951C277.462 350.355 271.838 351.88 272.903 355.49V355.518Z" fill="black"/>
<path d="M280.985 370.417C283.861 383.605 264.144 390.681 254.781 384.281C251.675 382.167 248.77 387.158 251.905 389.301C258.923 394.104 269.163 392.91 276.354 389.214C283.933 385.346 288.464 377.364 286.623 368.879C285.817 365.226 280.208 366.764 280.999 370.417H280.985Z" fill="black"/>
<path d="M274.096 408.629C271.771 408.642 269.451 408.401 267.178 407.91L268.617 402.258C268.732 402.258 281.201 405.135 289.068 397.153C295.065 391.04 292.62 377.68 292.591 377.536L298.344 376.443C298.473 377.104 301.407 392.924 293.267 401.237C290.732 403.695 287.728 405.616 284.435 406.886C281.141 408.156 277.624 408.749 274.096 408.629Z" fill="black"/>
<path d="M305.521 492.504C305.521 492.504 303.752 521.095 303.838 532.471C303.838 532.471 291.268 533.334 289.6 550.995C287.299 575.559 298.502 602.899 345.804 629.649C352.995 633.69 355.627 638.062 355.627 638.062L361.509 688.499C361.509 688.499 337.966 677.986 330.113 671.687C320.952 664.338 266.934 636.121 252.164 587.165C237.394 538.21 256.939 500.63 305.521 492.504Z" fill="#333333"/>
<path d="M261.714 535.965C266.675 522.231 276.671 568.224 279.432 573.804C282.193 579.384 303.521 609.758 313.013 616.201C322.505 622.644 346.94 639.284 346.94 639.284C346.94 639.284 359.768 652.947 345.574 659.203C331.379 665.459 296.014 633.445 283.976 619.092C270.501 602.999 249.748 569.087 261.714 535.965Z" fill="#606060"/>
<path d="M366.24 695.172L359.999 692.382C359.021 691.95 335.909 681.595 327.755 675.124C326.475 674.088 323.972 672.449 320.808 670.378C302.96 658.685 261.34 631.245 248.425 588.459C240.601 562.572 241.924 539.345 252.222 521.425C262.289 503.865 280.525 492.432 304.916 488.347L309.763 487.542L309.432 492.777C309.432 493.065 307.678 521.339 307.764 532.428V536.411L304.068 536.656C303.162 536.756 294.748 537.95 293.483 551.426C290.837 579.47 308.555 603.847 347.616 625.923C355.44 630.353 358.546 635.214 358.877 635.761L359.38 636.566L366.24 695.172ZM301.278 497.609C281.69 501.924 267.092 511.588 258.909 525.841C249.849 541.661 248.842 562.37 255.903 585.885C267.912 625.722 307.865 651.954 324.936 663.143C328.402 665.43 330.904 667.07 332.486 668.335C337.419 672.305 349.37 678.23 356.777 681.739L351.859 639.716C349.641 637.134 346.97 634.98 343.977 633.359C301.767 609.499 282.711 582.462 285.702 550.577C286.968 537.03 294.331 531.061 299.94 529.005C300.084 519.901 300.846 505.404 301.278 497.609Z" fill="black"/>
<path d="M294.461 541.374C297.812 530.775 294.461 518.608 286.249 511.747C282.382 508.473 277.603 506.465 272.557 505.995C269.944 505.583 267.272 506.162 265.064 507.62C263.046 509.344 261.472 511.53 260.477 513.991C258.751 517.601 263.828 520.794 265.553 517.169C266.16 515.525 267.145 514.047 268.43 512.855C269.724 511.949 271.709 512.222 273.161 512.409C276.951 512.943 280.487 514.619 283.301 517.213C286.242 520.061 288.322 523.68 289.301 527.656C290.281 531.631 290.12 535.803 288.838 539.691C287.615 543.546 293.31 545.2 294.518 541.374H294.461Z" fill="black"/>
<path d="M255.572 531.968C255.688 529.896 256.441 527.911 257.729 526.285C259.016 524.658 260.774 523.468 262.763 522.878C267.322 521.44 272.198 523.008 276.081 525.669C284.422 531.421 287.759 542.481 284.71 552.447C284.593 552.822 284.553 553.216 284.59 553.607C284.627 553.997 284.741 554.377 284.926 554.723C285.111 555.069 285.363 555.375 285.667 555.623C285.971 555.871 286.321 556.056 286.698 556.167C287.074 556.279 287.468 556.314 287.859 556.272C288.249 556.23 288.626 556.11 288.97 555.921C289.314 555.731 289.616 555.475 289.86 555.168C290.104 554.86 290.284 554.508 290.391 554.13C291.93 549.052 292.146 543.665 291.019 538.48C289.891 533.295 287.457 528.484 283.948 524.504C277.332 517.313 265.999 512.998 257.298 518.564C255.029 520.003 253.148 521.979 251.821 524.316C250.494 526.653 249.763 529.281 249.69 531.968C249.69 532.748 250 533.496 250.552 534.047C251.103 534.599 251.851 534.909 252.631 534.909C253.411 534.909 254.159 534.599 254.711 534.047C255.262 533.496 255.572 532.748 255.572 531.968Z" fill="black"/>
<path d="M292.088 552.577C290.65 547.012 288.838 541.216 284.365 537.591C279.892 533.967 273.248 532.213 267.639 531.709C256.968 530.746 245.376 537.462 244.628 549.931C244.369 553.972 250.251 553.958 250.51 549.931C251.085 540.583 261.066 537.174 268.387 538.095C272.514 538.613 277.792 539.936 281.086 542.798C284.379 545.66 285.4 550.219 286.421 554.303C287.443 558.388 293.138 556.547 292.102 552.635L292.088 552.577Z" fill="black"/>
<path d="M250.87 566.872C248.914 562.975 252.308 558.818 254.954 556.517C258.159 553.779 261.978 551.855 266.086 550.908C273.693 549.068 282.912 550.635 285.616 559.609C285.722 559.987 285.903 560.34 286.147 560.647C286.391 560.955 286.693 561.21 287.037 561.4C287.38 561.589 287.758 561.709 288.148 561.751C288.538 561.793 288.933 561.758 289.309 561.646C289.685 561.535 290.036 561.35 290.34 561.102C290.644 560.854 290.896 560.548 291.081 560.202C291.265 559.856 291.38 559.477 291.417 559.086C291.454 558.695 291.413 558.301 291.297 557.927C290.578 555.341 289.326 552.935 287.622 550.862C285.918 548.789 283.8 547.095 281.402 545.889C275.908 543.272 269.638 543.459 263.899 544.983C258.363 546.418 253.327 549.348 249.345 553.454C245.232 557.769 242.873 564.283 245.793 570.051C247.591 573.617 252.682 570.439 250.87 566.872Z" fill="black"/>
<path d="M293.353 569.677C285.904 559.61 272.859 555.396 261.843 561.134C259.172 562.618 256.82 564.615 254.923 567.01C253.026 569.406 251.621 572.152 250.788 575.092C249.956 578.032 249.712 581.108 250.072 584.142C250.431 587.176 251.387 590.11 252.883 592.774C254.896 596.183 260.002 593.033 257.96 589.581C256.84 587.592 256.142 585.395 255.906 583.125C255.671 580.855 255.904 578.56 256.592 576.384C257.28 574.208 258.407 572.196 259.904 570.473C261.401 568.751 263.236 567.354 265.295 566.369C274.039 562.299 283.559 566.542 289.183 574.178C289.451 574.461 289.775 574.686 290.133 574.84C290.492 574.994 290.878 575.074 291.268 575.074C291.658 575.074 292.044 574.994 292.403 574.84C292.761 574.686 293.085 574.461 293.353 574.178C293.886 573.558 294.179 572.767 294.179 571.949C294.179 571.131 293.886 570.341 293.353 569.72V569.677Z" fill="black"/>
<path d="M288.435 502.01C290.319 501.622 292.217 503.448 293.267 504.887C294.62 506.958 295.49 509.308 295.813 511.761C296.848 517.801 295.669 524.043 296.244 530.127C296.234 530.92 296.525 531.688 297.059 532.275C297.593 532.862 298.33 533.225 299.12 533.291C299.928 533.253 300.689 532.901 301.24 532.31C301.791 531.718 302.088 530.935 302.069 530.127C301.378 522.677 302.903 515.069 300.918 507.749C299.12 501.09 293.914 494.503 286.81 495.927C286.037 496.191 285.394 496.739 285.012 497.461C284.63 498.182 284.537 499.022 284.753 499.81C284.846 500.193 285.013 500.554 285.246 500.872C285.478 501.19 285.771 501.459 286.108 501.663C286.445 501.867 286.819 502.003 287.208 502.063C287.597 502.123 287.995 502.105 288.377 502.01H288.435Z" fill="black"/>
<path d="M298.531 585.123C290.204 581.743 280.755 587.496 275.275 594.054C269.766 600.684 266.808 609.064 266.934 617.683C266.934 618.463 267.244 619.211 267.795 619.763C268.347 620.314 269.095 620.624 269.875 620.624C270.655 620.624 271.403 620.314 271.955 619.763C272.506 619.211 272.816 618.463 272.816 617.683C272.675 610.859 274.923 604.199 279.173 598.858C283.329 593.723 290.405 588.531 296.963 591.206C297.347 591.307 297.747 591.329 298.139 591.271C298.531 591.213 298.908 591.076 299.246 590.87C299.585 590.663 299.878 590.39 300.108 590.067C300.339 589.745 300.502 589.379 300.587 588.992C300.792 588.206 300.694 587.373 300.313 586.656C299.933 585.94 299.296 585.392 298.531 585.123Z" fill="black"/>
<path d="M286.58 631.433C283.43 625.45 286.249 618.489 290.348 613.945C294.447 609.4 300.314 605.531 306.254 607.372C309.893 608.508 311.446 602.425 307.807 601.289C299.71 598.772 291.34 603.59 285.889 609.831C280.137 616.433 277.088 626.241 281.489 634.626C283.344 638.164 288.435 634.985 286.58 631.433Z" fill="black"/>
<path d="M322.131 610.866C317.529 608.162 312.453 610.449 308.526 613.469C304.946 616.237 301.916 619.652 299.595 623.537C294.848 631.535 293.066 640.948 294.562 650.128C294.651 650.513 294.816 650.876 295.048 651.196C295.279 651.517 295.573 651.787 295.91 651.992C296.248 652.197 296.623 652.333 297.014 652.39C297.405 652.448 297.803 652.427 298.186 652.329C298.948 652.051 299.581 651.5 299.961 650.783C300.341 650.065 300.441 649.233 300.242 648.446C299.199 641.424 300.492 634.253 303.924 628.038C305.551 625.031 307.671 622.319 310.195 620.013C312.251 618.143 316.336 614.649 319.154 616.317C322.477 618.273 325.454 612.822 322.131 610.866Z" fill="black"/>
<path d="M312.682 655.881C309.288 641.83 320.894 630.756 330.545 623.695C333.651 621.423 330.717 615.958 327.567 618.259C321.412 622.76 315.458 627.765 311.259 634.467C309.057 637.844 307.543 641.623 306.802 645.586C306.062 649.549 306.11 653.619 306.944 657.564C307.893 661.49 313.574 659.822 312.625 655.881H312.682Z" fill="black"/>
<path d="M299.048 581.729C298.085 575.761 292.591 571.863 287.356 570.756C281.909 569.668 276.252 570.697 271.536 573.632C261.469 579.802 257.269 592.832 258.118 604.74C258.391 608.767 264.288 608.796 264 604.74C263.353 595.679 265.726 585.296 273.176 579.96C276.46 577.503 280.518 576.309 284.609 576.595C288.334 576.911 292.72 579.04 293.411 583.354C293.498 583.74 293.662 584.104 293.894 584.425C294.125 584.747 294.418 585.018 294.756 585.223C295.094 585.428 295.47 585.564 295.862 585.621C296.253 585.677 296.652 585.655 297.035 585.555C297.8 585.279 298.434 584.729 298.814 584.011C299.195 583.293 299.294 582.459 299.092 581.672L299.048 581.729Z" fill="black"/>
<path d="M334.859 624.63C328.805 629.634 325.713 637.573 324.059 645.397C322.291 653.835 322.349 662.554 324.231 670.968C325.109 674.908 330.789 673.24 329.912 669.285C328.321 662.227 328.209 654.917 329.581 647.813C330.804 641.672 332.975 634.093 337.836 630.08C338.5 629.607 338.972 628.911 339.165 628.119C339.358 627.326 339.259 626.491 338.886 625.766C338.705 625.419 338.454 625.112 338.15 624.865C337.846 624.618 337.495 624.436 337.118 624.329C336.741 624.223 336.346 624.195 335.958 624.246C335.569 624.298 335.195 624.428 334.859 624.63Z" fill="black"/>
<path d="M345.631 631.993C338.571 647.747 337.642 665.568 343.028 681.97C344.308 685.752 350.003 684.127 348.709 680.287C343.739 665.523 344.457 649.435 350.722 635.172C352.347 631.533 347.271 628.326 345.631 631.993Z" fill="black"/>
<path d="M431.677 705.426C431.677 705.426 474.305 746.86 490.643 777.335C510.044 813.548 515.681 834.244 519.492 852.724C519.893 854.68 519.741 856.708 519.055 858.582C518.369 860.456 517.174 862.102 515.606 863.337C514.037 864.571 512.156 865.344 510.173 865.571C508.19 865.797 506.183 865.467 504.377 864.618C496.279 860.829 489.035 855.433 483.087 848.758C477.138 842.082 472.609 834.267 469.775 825.787C462.167 803.035 431.677 705.426 431.677 705.426Z" fill="#474747" stroke="black" stroke-width="5.75271" stroke-miterlimit="10"/>
<path d="M458.284 750.01C458.284 750.01 464.036 740.662 473.385 750.01C482.733 759.358 501.429 791.113 505.024 801.785C508.62 812.456 517.249 883.229 492.8 831.325C468.351 779.421 456.845 760.797 458.284 750.01Z" fill="#606060"/>
<path d="M431.677 705.426C431.677 705.426 474.305 746.86 490.643 777.335C510.044 813.548 515.681 834.244 519.492 852.724C519.893 854.68 519.741 856.708 519.055 858.582C518.369 860.456 517.174 862.102 515.606 863.337C514.037 864.571 512.156 865.344 510.173 865.571C508.19 865.797 506.183 865.467 504.377 864.618C496.279 860.829 489.035 855.433 483.087 848.758C477.138 842.082 472.609 834.267 469.775 825.787C462.167 803.035 431.677 705.426 431.677 705.426Z" stroke="black" stroke-width="5.75271" stroke-miterlimit="10"/>
<path d="M479.137 846.368C479.137 846.368 488.658 859.527 503.586 853.558C517.968 847.806 516.53 836.3 516.53 836.3" stroke="black" stroke-width="7.19089" stroke-miterlimit="10" stroke-linecap="round"/>
<path d="M473.385 835.222C473.385 835.222 486.328 843.492 497.834 839.997C512.819 835.438 512.215 821.919 512.215 821.919" stroke="black" stroke-width="7.19089" stroke-miterlimit="10" stroke-linecap="round"/>
<path d="M444.621 750.009C444.621 750.009 447.497 739.942 456.126 738.504C459.037 737.97 462.037 738.221 464.817 739.232C467.598 740.243 470.059 741.978 471.946 744.257" stroke="black" stroke-width="7.19089" stroke-miterlimit="10" stroke-linecap="round"/>
<path d="M453.25 771.582C453.25 771.582 456.126 758.638 464.755 755.762C477.339 751.562 482.014 758.638 482.014 758.638" stroke="black" stroke-width="7.19089" stroke-miterlimit="10" stroke-linecap="round"/>
<path d="M453.25 783.088C453.25 783.088 461.879 774.459 470.508 771.583C483.092 767.383 486.328 770.144 486.328 770.144" stroke="black" stroke-width="7.19089" stroke-miterlimit="10" stroke-linecap="round"/>
<path d="M469.473 822.781C469.473 822.781 484.89 827.671 493.519 824.795C502.148 821.918 507.901 811.851 507.901 811.851" stroke="black" stroke-width="7.19089" stroke-miterlimit="10" stroke-linecap="round"/>
<path d="M466.596 806.962C466.596 806.962 480.575 808.975 489.204 806.099C497.833 803.223 505.024 796.032 505.024 796.032" stroke="black" stroke-width="7.19089" stroke-miterlimit="10" stroke-linecap="round"/>
<path d="M457.967 795.456L497.834 783.088" stroke="black" stroke-width="7.19089" stroke-miterlimit="10" stroke-linecap="round"/>
<path d="M322.189 499.047C320.385 499.771 318.796 500.943 317.573 502.454C316.35 503.964 315.533 505.762 315.199 507.676C311.446 528.789 299.969 599.619 303.392 659.778C304.709 683.602 313.803 706.336 329.279 724.496L359.049 759.357C359.049 759.357 346.106 564.657 335.809 506.655C335.549 505.185 334.965 503.79 334.099 502.573C333.234 501.356 332.108 500.347 330.805 499.619C329.501 498.89 328.051 498.461 326.561 498.362C325.071 498.264 323.577 498.498 322.189 499.047Z" fill="#2BBD00" stroke="black" stroke-width="5.75271" stroke-miterlimit="10"/>
<path d="M339.634 508.396L383.858 567.692C383.858 567.692 480.316 829.023 477.699 857.873L463.849 849.561C453.906 843.603 445.703 835.137 440.062 825.011C417.18 784.008 357.51 671.701 351.01 604.624C345.775 550.405 339.634 508.396 339.634 508.396Z" fill="#2BBD00" stroke="black" stroke-width="7.19089" stroke-miterlimit="10"/>
<path d="M547.451 660.124H574.776C574.776 660.124 570.461 732.032 561.832 772.301C556.195 798.591 551.765 818.323 546.012 835.581C543.985 841.679 536.103 856.277 530.912 860.03L517.249 870.098C519.119 863.77 534.363 809.579 541.698 756.481C545.293 730.479 547.451 660.124 547.451 660.124Z" fill="#2BBD00" stroke="black" stroke-width="5.75271" stroke-miterlimit="10"/>
<path d="M403.633 585.338C403.633 585.338 439.587 614.102 455.407 625.607L451.093 709.022L434.554 692.483C434.554 692.483 408.666 599.375 403.633 585.338Z" fill="#474747"/>
<path d="M465.474 631.36L479.856 641.427L489.923 760.796L461.16 719.089L465.474 631.36Z" fill="#474747"/>
<path d="M495.676 648.619C502.072 652.182 508.819 655.074 515.811 657.248C515.811 657.248 514.372 719.089 508.62 755.044C508.62 755.044 496.438 730.71 495.676 648.619Z" fill="#333333"/>
<path d="M525.878 660.124L540.26 663C540.26 663 538.548 687.564 534.507 721.965C531.631 746.414 523.002 767.987 517.249 785.245C517.249 778.054 525.878 696.078 525.878 660.124Z" fill="#474747"/>
<path d="M365.866 716.356L379.184 729.156C379.184 729.156 419.453 815.447 419.453 814.009C419.453 812.571 369.462 759.358 369.462 759.358L365.866 716.356Z" fill="#333333"/>
<path d="M471.227 647.18C471.227 647.18 478.418 682.66 479.856 694.64C481.295 706.62 482.733 743.538 482.733 743.538L467.632 717.65C467.632 717.65 466.625 696.078 466.913 688.887C467.315 678.417 471.227 647.18 471.227 647.18Z" fill="#606060"/>
<path d="M366.24 570.957C366.24 570.957 357.611 667.314 455.407 822.638C469.875 845.648 412.262 670.191 412.262 670.191C412.262 670.191 378.609 583.713 366.24 570.957Z" fill="#39FC00"/>
<path d="M325.971 529.25C329.797 529.25 333.162 556.575 338.915 629.922C343.23 684.573 352.074 726.079 331.868 705.426C305.837 678.82 310.151 660.124 313.028 615.54C314.959 586.469 319.289 557.608 325.971 529.25Z" fill="#39FC00"/>
<path d="M618.597 383.317C620.481 383.504 622.912 390.753 622.365 396.505C621.819 402.258 623.199 410.398 626.133 419.128C629.067 427.858 653.79 450.84 656.335 454.939C660.175 461.209 658.162 464.632 650.683 481.329C643.205 498.026 639.868 505.376 633.986 506.699C628.104 508.022 620.093 504.354 615.433 500.946C609.968 496.905 617.72 497.293 621.517 497.696C621.517 497.696 629.772 499.68 633.022 496.948C633.986 496.157 635.899 489.34 639.307 481.372C643.219 472.039 649.374 463.755 646.843 458.75C643.075 451.214 637.596 447.316 629.887 439.895C622.984 433.265 616.483 418.495 614.801 409.694C613.089 400.719 616.713 387.085 618.597 383.317Z" fill="black"/>
<path d="M564.709 499.048C565.356 503.362 577.882 499.896 581.046 500.198C584.21 500.5 593.918 501.406 593.271 497.049C592.624 492.691 582.916 491.526 579.09 491.857C575.711 492.145 564.061 494.733 564.709 499.048Z" fill="#2BBD00"/>
<path d="M566.665 497.797C567.312 502.111 577.882 498.458 581.046 498.76C584.21 499.062 593.918 499.968 593.271 495.611C592.624 491.253 582.528 490.778 578.702 491.109C575.337 491.397 566.017 493.439 566.665 497.797Z" fill="black"/>
<path d="M549.967 501.363C551.405 505.519 543.251 510.668 535.672 509.892C528.093 509.115 524.166 497.653 522.153 492.49C520.585 488.578 517.709 481.185 517.709 475.231C517.709 465.797 520.513 463.021 527.316 461.655C536.736 459.771 542.201 462.029 544.085 463.913C545.969 465.797 542.647 464.531 538.821 464.531C535.103 465.133 531.67 466.895 529.013 469.565C526.137 473.089 527.316 481.775 529.013 486.535C532.781 497.106 538.419 501.219 542.201 501.608C545.984 501.996 549.018 498.746 549.967 501.363Z" fill="#2BBD00"/>
<path d="M552.844 499.925C554.282 504.081 546.127 509.23 538.548 508.453C530.969 507.676 527.043 496.214 525.029 491.051C523.462 487.139 520.585 479.747 520.585 473.793C520.585 464.358 523.203 461.957 530.005 460.59C539.425 458.706 545.077 460.59 546.961 462.474C548.845 464.358 545.077 466.242 541.309 466.242C539.167 466.242 534.018 465.538 531.889 468.126C529.013 471.65 530.192 480.337 531.889 485.097C535.657 495.668 541.295 499.781 545.077 500.169C548.86 500.557 551.894 497.307 552.844 499.925Z" fill="black"/>
<path opacity="0.72" d="M437.789 373.956C441.396 373.956 444.319 370.614 444.319 366.491C444.319 362.369 441.396 359.027 437.789 359.027C434.183 359.027 431.26 362.369 431.26 366.491C431.26 370.614 434.183 373.956 437.789 373.956Z" fill="#0DFF00"/>
<path opacity="0.15" d="M437.79 376.744C442.746 376.744 446.764 372.153 446.764 366.49C446.764 360.827 442.746 356.236 437.79 356.236C432.833 356.236 428.815 360.827 428.815 366.49C428.815 372.153 432.833 376.744 437.79 376.744Z" fill="#0DFF00"/>
<path opacity="0.15" d="M437.545 379.564C443.407 379.564 448.159 373.923 448.159 366.965C448.159 360.007 443.407 354.367 437.545 354.367C431.683 354.367 426.931 360.007 426.931 366.965C426.931 373.923 431.683 379.564 437.545 379.564Z" fill="#0DFF00"/>
<path d="M437.789 371.15C439.847 371.15 441.514 369.064 441.514 366.491C441.514 363.917 439.847 361.831 437.789 361.831C435.732 361.831 434.065 363.917 434.065 366.491C434.065 369.064 435.732 371.15 437.789 371.15Z" fill="white"/>
<path opacity="0.54" d="M543.007 357.229C539.224 342.847 481.295 343.854 473.974 355.388C471.572 359.142 472.191 368.576 478.461 375.522C486.688 384.712 514.416 378.917 523.045 376.961C532.264 374.789 546.013 368.677 543.007 357.229Z" fill="#39FC00"/>
<path opacity="0.23" d="M551.248 354.051C546.573 330.407 474.765 332.003 465.647 351.016C462.67 357.2 463.432 372.761 471.198 384.31C481.395 399.468 515.782 389.904 526.453 386.582C537.944 383.016 554.972 372.948 551.248 354.051Z" fill="#39FC00"/>
<path opacity="0.32" d="M546.976 355.23C542.762 335.829 478.03 337.152 469.803 352.756C467.128 357.819 467.819 370.59 474.808 380.082C483.998 392.522 515.077 384.67 524.627 381.951C534.982 378.989 550.327 370.719 546.976 355.23Z" fill="#39FC00"/>
<path d="M537.383 358.106C535.514 352.483 488.485 350.915 479.856 358.106C477.282 360.249 477.483 363.212 482.733 368.174C489.607 374.674 516.041 371.927 523.002 369.612C531.631 366.735 538.822 362.421 537.383 358.106Z" fill="white"/>
</svg>
