<svg width="700" height="427" viewBox="0 0 700 427" fill="none" xmlns="http://www.w3.org/2000/svg">
<g clip-path="url(#clip0_209_192)">
<path d="M575.276 386.097C572.337 406.65 561.96 424.934 551.097 443.231C544.392 454.497 537.504 465.777 532.06 477.608C532.022 477.66 531.991 477.718 531.968 477.778C530.56 480.839 529.248 483.938 528.032 487.078C524.91 495.328 522.207 510.883 514.912 522.491C495.876 552.802 464.69 582.93 455.874 585.448C451.938 586.563 441.442 587.153 428.466 587.284C400.994 587.56 362.868 585.723 355.508 582.169C344.697 576.923 316.581 562.01 296.469 546.756C282.811 536.407 222.172 492.495 203.017 460.413C202.729 459.927 202.44 459.442 202.191 458.97C201.941 458.498 201.863 458.38 201.705 458.091C201.382 457.514 201.08 456.937 200.8 456.36C200.238 455.268 199.735 454.147 199.291 453.002C198.842 451.928 198.457 450.829 198.137 449.71C198.032 449.343 197.927 448.975 197.848 448.621C197.769 448.267 197.664 447.887 197.599 447.52C190.029 409.286 192.639 380.142 192.639 380.142L140.541 266.269L164.235 245.755L261.229 161.655L432.573 91.1434C434.016 91.432 465.91 98.0425 491.822 107.696C504.115 112.273 515.057 117.533 520.764 123.133C527.652 129.901 537.623 151.451 541.204 161.773V161.944C546.202 177.37 550.215 193.097 553.222 209.03V209.149C555.032 218.474 556.515 227.721 557.42 235.879C557.525 236.771 557.604 237.873 557.696 239.145C557.866 241.663 558.011 244.864 558.142 248.536C558.955 270.833 559.336 310.181 562.078 317.854C565.502 327.482 579.002 360.009 575.276 386.097Z" fill="#39F900"/>
<path d="M558.286 248.562L557.63 248.628L554.599 248.89C436.194 154.337 297.794 255.448 297.794 255.448L210.521 304.489L164.248 245.755L261.242 161.655L432.586 91.1434C434.029 91.432 465.923 98.0425 491.834 107.696L529.134 118.11L541.217 161.813V161.983C546.216 177.426 550.23 193.171 553.235 209.122V209.24C555.859 220.691 557.813 230.961 557.774 235.59V239.197C558.01 241.689 558.155 244.89 558.286 248.562Z" fill="#2BBA00"/>
<path d="M371.264 363.131C371.264 363.131 367.328 374.935 312.225 377.559C306.466 377.834 296.219 402.191 289.922 401.167L292.546 360.324C292.546 360.324 369.952 352.638 371.264 363.131Z" fill="#2BBA00"/>
<path d="M326.657 263.449C326.657 263.449 368.352 257.429 381.616 290.599C394.88 323.77 321.409 268.695 321.409 268.695L326.657 263.449Z" fill="#2BBA00"/>
<path d="M263.683 517.9C263.683 517.9 275.491 508.352 274.179 497.387C272.867 486.422 264.995 470.355 278.115 453.632C291.234 436.909 302.045 425.878 299.919 414.834C297.794 403.791 265.336 431.334 265.336 431.334L248.28 487.183L263.683 517.9Z" fill="#2BBA00"/>
<path d="M541.269 161.813C547.475 179.755 554.94 212.362 557.564 235.971C559.047 249.257 558.876 308.345 562.156 317.946C565.436 327.547 579.002 360.075 575.276 386.15C570.028 422.691 541.296 452.071 528.045 487.143C524.922 495.393 522.22 510.949 514.925 522.557C495.888 552.868 464.703 582.995 455.886 585.514C443.698 588.989 366.331 587.455 355.52 582.235C344.71 577.014 316.594 562.075 296.482 546.821C280.869 535.017 203.909 479.326 197.611 447.585C190.041 409.352 192.652 380.208 192.652 380.208L140.554 266.335L261.255 161.682L432.599 91.1697C432.769 91.3008 506.594 108.483 520.842 123.173C527.546 130.033 537.688 151.425 541.269 161.813Z" stroke="black" stroke-width="8" stroke-miterlimit="10" stroke-linecap="round"/>
<path d="M262.45 226.921C264.063 228.35 308.29 214.92 318.786 210.985C328.665 207.247 347.649 195.626 379.136 201.804C409.443 207.758 417.184 203.115 438.175 199.18C444.617 197.37 461.03 195.023 474.91 199.18C501.15 207.05 508.759 213.897 510.334 212.296C511.908 210.696 474.714 188.687 457.855 189.999C440.996 191.311 432.927 195.062 413.248 197.869C394.88 200.492 371.265 192.622 350.273 193.934C343.254 194.367 326.907 199.18 313.538 205.738C281.827 221.294 261.361 225.95 262.45 226.921Z" fill="black"/>
<path d="M302.019 174.68C302.019 174.68 345.957 161.104 368.286 161.682C390.616 162.259 404.156 168.699 419.821 166.613C435.486 164.528 455.244 157.432 468.364 158.521C481.706 159.649 491.769 167.151 505.099 170.325C505.099 170.325 488.043 155.897 467.695 153.353C456.503 151.963 431.733 160.672 416.921 161.524C402.109 162.377 385.04 156.658 371.934 156.278C357.436 155.74 328.77 160.016 302.019 174.68Z" fill="black"/>
<path d="M263.774 195.088L260.494 270.781L304.813 354.094C304.813 354.094 281.814 412.014 271.554 430.023C262.685 445.592 229.742 488.206 229.742 488.206C229.742 488.206 191.944 467.036 188.244 397.902C184.544 328.767 189.189 273.561 170.677 255.396C152.165 237.23 203.962 211.654 203.962 211.654L263.774 195.088Z" fill="#333333" stroke="black" stroke-width="5" stroke-miterlimit="10"/>
<path d="M296.482 407.725C303.042 431.806 270.846 439.374 264.994 458.878C257.123 485.11 274.178 499.538 261.059 511.342C253.331 518.294 232.72 501.886 219.075 485.11C212.015 476.373 206.269 466.652 202.02 456.255C202.02 456.255 217.422 422.809 241.379 409.037C266.044 394.859 292.546 393.298 296.482 407.725Z" fill="#474747" stroke="black" stroke-width="4" stroke-miterlimit="10"/>
<path d="M196.772 422.153C196.102 423.373 196.772 444.45 196.772 444.45C196.772 444.45 228.351 382.569 290.276 388.917C291.327 389.026 292.387 388.801 293.303 388.274C294.22 387.746 294.946 386.943 295.379 385.979L305.665 363.131L250.562 275.253C250.562 275.253 209.524 270.964 182.34 273.942L186.276 287.058C186.276 287.058 195.46 283.123 219.075 289.681C219.075 289.681 218.786 301.722 219.075 306.732C220.387 329.029 228.259 356.573 228.259 356.573L246.626 381.493C246.626 381.493 212.515 393.298 196.772 422.153Z" fill="#474747" stroke="black" stroke-width="4" stroke-miterlimit="10"/>
<path d="M236.131 196.557C236.131 196.557 250.563 193.698 250.563 193.16C250.563 192.622 249.632 241.689 249.343 257.429C249.316 258.71 248.794 259.93 247.887 260.835C246.979 261.74 245.757 262.258 244.476 262.282L182.813 263.423C181.544 263.449 180.304 263.05 179.288 262.289C178.273 261.529 177.542 260.45 177.211 259.226L174.469 249.021L179.717 234.594L181.632 246.123C181.828 247.291 182.442 248.348 183.359 249.098C184.276 249.848 185.434 250.24 186.618 250.202L229.663 249.179C231.05 249.126 232.364 248.547 233.338 247.561C234.313 246.574 234.876 245.253 234.911 243.867L236.131 196.557Z" fill="#474747" stroke="black" stroke-width="4" stroke-miterlimit="10"/>
<path d="M149.541 440.516C149.541 440.516 104.501 377.322 95.7503 346.08C86.5665 313.29 65.575 240.234 84.3887 183.979C119.366 79.3127 212.818 23.5958 243.334 12.2897C306.571 -11.2405 423.074 3.1085 455.729 22.4547C474.386 33.5115 503.328 48.0441 533.49 99.236C558.103 109.912 651.213 143.962 640.652 203.522C631.035 237.269 584.132 229.754 558.877 218.907C550.362 215.234 548.302 159.399 516.893 136.276C495.797 120.759 414.048 117.69 337.56 182.72C261.072 247.749 251.875 238.017 197.402 230.396C197.402 230.396 158.305 245.65 156.101 357.884C155.694 378.66 194.148 435.269 149.541 440.516Z" fill="black"/>
<path d="M515.883 94.3961C515.883 94.3961 508.588 70.1446 462.643 37.079C431.523 14.6899 313.616 -1.07557 245.669 26.7173C194.804 47.48 144.503 98.2785 119.247 144.395C87.6944 201.987 89.072 244.627 106.128 323.324C106.128 323.324 178.352 212.362 216.202 180.792C252.596 150.428 291.063 103.013 416.029 92.0746C432.625 90.6318 453.197 91.0253 465.766 93.019C465.766 93.019 485.17 91.786 492.831 92.0877C499.194 92.2976 515.883 94.3961 515.883 94.3961Z" fill="#F30103"/>
<path d="M200.708 221.478C200.708 221.478 295.039 96.1013 452.2 98.0949C436.05 100.167 428.466 102.895 413.248 108.68C379.792 121.258 338.465 144.316 321.409 168.423C321.409 168.423 399.524 107.761 474.91 100.81C547.712 92.5337 606.882 147.569 606.882 147.569C606.882 147.569 552.526 105.597 492.176 105.597C436.863 105.624 355.521 141.221 306.978 193.16C258.435 245.1 200.708 221.478 200.708 221.478Z" fill="#F30103"/>
<path d="M427.994 33.1968C423.73 33.4722 430.395 38.2464 435.433 48.7786C439.566 57.409 445.338 68.2429 434.515 69.5545C424.019 70.8661 418.548 59.1665 414.914 50.851C414.129 49.0321 413.446 47.1712 412.867 45.2767C411.857 42.1288 409.876 39.5187 407.16 39.5581C401.256 39.6499 404.313 44.9488 405.402 47.4277C406.491 49.9066 419.06 70.5513 401.335 71.3907C380.133 72.4006 380.055 45.0799 380.448 41.4992C381.511 32.6984 386.536 30.2457 380.789 27.8192C374.479 25.196 371.868 37.0004 371.199 46.1817C370.464 56.3204 376.132 71.194 389.199 76.0731C402.056 80.8867 414.56 79.9292 418.063 67.2985C418.063 67.2985 428.283 79.7719 438.779 77.7913C448.566 75.9682 452.489 69.2397 442.715 49.6181C434.239 32.7115 429.136 33.1312 427.994 33.1968Z" fill="#FFCE00"/>
<path d="M285.343 135.148C285.343 135.148 289.029 127.698 283.086 116.103C277.143 104.509 280.935 131.016 285.343 135.148Z" fill="black"/>
<path d="M297.794 126.399C297.794 126.399 301.467 118.963 295.537 107.355C289.607 95.7471 293.32 122.333 297.794 126.399Z" fill="black"/>
<path d="M278.731 104.364C278.731 104.364 281.433 96.4947 274.047 85.7527C266.66 75.0107 273.771 100.81 278.731 104.364Z" fill="black"/>
<path d="M291.654 98.5933C291.654 98.5933 294.356 90.7236 286.97 79.9947C279.583 69.2658 286.681 95.0388 291.654 98.5933Z" fill="black"/>
<path d="M282.181 69.2134C282.181 69.2134 284.896 61.3437 277.51 50.6017C270.124 39.8597 277.221 65.6589 282.181 69.2134Z" fill="black"/>
<path d="M268.93 37.4856C268.93 37.4856 270.675 29.4455 262.003 19.5166C253.331 9.58778 263.486 34.4952 268.93 37.4856Z" fill="black"/>
<path d="M269.888 77.8699C269.888 77.8699 272.591 70.0003 265.204 59.2583C257.818 48.5162 264.916 74.2892 269.888 77.8699Z" fill="black"/>
<path d="M257.778 47.4538C257.778 47.4538 260.009 39.5055 251.98 29.1701C243.95 18.8346 252.57 44.1879 257.778 47.4538Z" fill="black"/>
<path d="M516.894 305.42C516.894 305.42 497.726 302.797 485 305.42C480.741 306.165 476.621 307.558 472.785 309.552C471.904 310.089 471.162 310.826 470.62 311.703C470.077 312.581 469.749 313.574 469.663 314.601L468.351 321.16C468.351 321.16 514.27 327.468 516.894 325.632C519.518 323.796 523.453 317.225 516.894 305.42Z" fill="#E5E5E5"/>
<path d="M494.419 333.016C505.832 333.016 515.083 323.768 515.083 312.359C515.083 300.95 505.832 291.701 494.419 291.701C483.007 291.701 473.756 300.95 473.756 312.359C473.756 323.768 483.007 333.016 494.419 333.016Z" fill="black"/>
<path d="M543.133 266.072C526.077 241.152 428.991 210.985 422.431 314.602C421.933 322.563 431.379 377.165 484.094 378.87C565.436 381.493 560.188 290.993 543.133 266.072ZM516.893 325.632C514.269 327.468 468.35 321.16 468.35 321.16L469.662 314.602C469.749 313.574 470.077 312.581 470.619 311.703C471.162 310.826 471.904 310.089 472.785 309.552C476.621 307.558 480.74 306.165 484.999 305.42C497.725 302.797 516.893 305.42 516.893 305.42C523.453 317.225 519.517 323.783 516.893 325.632Z" fill="#39F900"/>
<path d="M459.167 326.406C463.945 325.661 468.765 325.223 473.599 325.094C493.698 324.701 526.327 327.088 528.702 331.652C531.076 336.217 466.527 328.059 459.167 326.406Z" fill="#109E0A"/>
<path d="M522.81 327.468C530.013 318.051 522.141 305.42 522.141 305.42C522.141 305.42 527.14 305.525 526.077 304.109C522.141 298.862 498.027 299.125 481.47 301.485C476.708 302.036 472.179 303.847 468.35 306.732C463.877 310.313 465.726 313.29 465.726 313.29L464.415 319.848C464.415 319.848 461.791 321.159 462.394 322.589C463.995 326.406 527.389 332.964 528.701 331.652C530.013 330.341 522.81 327.468 522.81 327.468ZM516.893 325.632C514.269 327.468 468.35 321.159 468.35 321.159L469.662 314.601C469.749 313.574 470.077 312.581 470.619 311.703C471.162 310.826 471.904 310.089 472.785 309.552C476.621 307.558 480.74 306.165 484.999 305.42C497.726 302.797 516.893 305.42 516.893 305.42C523.453 317.225 519.517 323.783 516.893 325.632Z" fill="black"/>
<path d="M457.539 294.927C457.539 294.927 461.16 272.119 465.687 274.06C470.213 276.001 462.354 293.078 457.539 294.927Z" fill="#109E0A"/>
<path d="M456.228 293.406C456.228 293.406 458.943 274.702 462.328 276.355C465.713 278.008 459.835 291.898 456.228 293.406Z" fill="#000002"/>
<path d="M381.064 289.957C381.064 289.957 363.785 274.899 367.826 272.106C371.867 269.312 382.074 284.894 381.064 289.957Z" fill="#000002"/>
<path d="M460.386 270.571C460.124 270.762 459.941 271.044 459.874 271.361C459.807 271.679 459.86 272.01 460.024 272.291C460.187 272.572 460.449 272.782 460.758 272.881C461.067 272.98 461.402 272.961 461.698 272.827C469.459 271.052 477.432 270.39 485.379 270.86C511.697 272.63 533.922 283.32 536.625 281.811C539.328 280.303 526.601 269.351 500.493 264.761C479.003 261.114 465.897 265.534 460.386 270.571Z" fill="#109E0A"/>
<path d="M457.854 270.807C465.583 268.909 473.512 267.948 481.47 267.948C491.236 268.122 500.939 269.564 510.333 272.237C521.892 275.424 532.493 281.588 533.949 280.801C536.573 279.372 523.453 266.531 498.526 262.242C473.598 257.953 460.478 265.102 457.854 270.807Z" fill="#000002"/>
<path d="M330.593 262.662C330.593 262.662 353.893 256.104 361.267 263.619C368.64 271.135 355.52 266.505 348.96 266.505H334.529L330.593 262.662Z" fill="#000002"/>
<path d="M497.213 327.718C497.213 327.718 518.205 360.101 530.012 393.298C530.012 393.298 515.581 456.478 490.653 505.611C490.653 505.611 495.901 540.132 495.901 545.444L501.149 538.807C501.149 538.807 498.525 517.559 497.213 508.26C497.213 508.26 521.537 455.074 536.572 393.298C536.572 393.298 522.141 352.638 503.773 327.718H497.213Z" fill="black"/>
<path d="M211.204 329.029C206.547 341.385 226.659 377.952 239.858 383.356C253.056 388.76 268.315 370.358 296.483 365.754C324.651 361.15 349.722 374.175 362.081 369.689C374.44 365.203 390.866 342.854 392.257 311.978C393.398 286.625 351.139 274.034 334.687 262.373C318.235 250.713 305.666 239.565 277.092 248.077C251.876 255.579 245.499 279.188 240.068 292.304C234.636 305.42 216.675 314.602 211.204 329.029Z" fill="black"/>
<path d="M382.758 324.95C378.572 340.243 369.113 352.113 360.677 355.117C349.761 358.934 321.318 347.247 296.39 351.182C271.463 355.117 258.684 375.512 246.968 370.856C235.253 366.2 219.588 340.191 223.681 329.514C228.483 317.08 245.656 305.092 250.445 293.839C250.498 293.716 250.55 293.585 250.603 293.445C255.26 282.166 257.753 262.596 282.746 255.409C308.041 248.182 317.264 259.973 331.853 270.033C346.442 280.093 385.644 288.92 384.883 310.693C384.734 315.512 384.021 320.297 382.758 324.95Z" fill="#606060"/>
<path d="M382.757 324.95C378.572 340.243 369.113 352.113 360.677 355.117C349.761 358.881 324.034 348.703 299.106 352.638C274.179 356.573 258.737 375.499 247.021 370.817C235.305 366.134 219.64 340.086 223.733 329.475C228.535 317.041 245.709 305.053 250.498 293.799C250.55 293.686 250.603 293.555 250.655 293.406C250.734 293.183 241.97 314.89 242.783 324.268C243.597 333.646 253.279 352.035 258.199 353.858C265.415 356.481 279.623 346.998 279.623 346.998C279.623 346.998 294.672 346.841 305.194 320.176L311.15 333.843C311.15 333.843 335.553 350.513 341.155 350.71C346.757 350.907 365.571 343.588 368.824 338.512C372.078 333.436 370.91 331.311 377.693 326.511L382.757 324.95Z" fill="#474747"/>
<path d="M283.06 302.6C291.916 303.61 299.093 311.178 299.434 321.383C299.527 326.629 297.607 331.712 294.068 335.587C292.65 337.328 290.867 338.735 288.844 339.71C286.822 340.684 284.61 341.202 282.365 341.227C279.967 341.276 277.583 340.85 275.35 339.975C273.117 339.1 271.079 337.793 269.352 336.128C267.626 334.463 266.246 332.474 265.291 330.274C264.336 328.075 263.825 325.708 263.787 323.311C263.42 312.109 271.056 302.771 280.843 302.469C281.584 302.461 282.325 302.504 283.06 302.6ZM282.05 295.059C280.974 294.941 278.009 294.678 276.894 294.718C263 295.137 252.15 307.834 252.662 323.153C253.121 337.2 263.026 348.52 275.425 349.923C276.5 350.041 279.466 350.303 280.581 350.264C294.474 349.844 305.324 337.148 304.826 321.828C304.354 307.781 294.422 296.462 282.05 295.059Z" fill="black"/>
<path d="M347.78 281.956C362.212 283.582 372.708 297.577 371.711 314.746C371.173 323.927 369.087 330.656 363.668 337.043C358.42 343.195 352.897 345.031 345.55 345.136C344.764 345.138 343.979 345.081 343.202 344.965C328.77 343.326 317.29 332.833 316.962 315.677C316.66 297.197 329.098 281.995 344.697 281.785C345.727 281.783 346.757 281.84 347.78 281.956ZM344.172 274.427C342.86 274.283 338.544 273.575 337.193 273.588C317.802 275.162 302.544 293.878 302.137 314.969C302.478 335.955 316.647 353.123 334.543 355.156C335.855 355.301 342.755 355.996 344.107 355.97C363.786 355.707 379.53 337.174 379.163 314.602C378.822 293.616 362.107 276.46 344.172 274.427Z" fill="black"/>
<path d="M176.757 443.134C198.298 441.182 211.917 397.223 207.177 344.949C202.436 292.675 181.132 251.881 159.591 253.833C138.051 255.785 124.432 299.744 129.172 352.018C133.912 404.293 155.217 445.087 176.757 443.134Z" fill="black"/>
<path d="M171.315 427.952C187.407 426.496 197.216 389.553 193.223 345.438C189.231 301.322 172.948 266.739 156.856 268.195C140.763 269.651 130.955 306.593 134.947 350.709C138.94 394.825 155.222 429.407 171.315 427.952Z" fill="#606060"/>
<path d="M161.667 419.227C177.716 417.772 187.863 385.013 184.33 346.056C180.797 307.099 164.923 276.698 148.875 278.152C132.826 279.607 122.679 312.366 126.212 351.323C129.744 390.28 145.618 420.681 161.667 419.227Z" fill="black"/>
<path d="M161.68 410.342C173.725 409.259 181.081 381.623 178.111 348.616C175.141 315.609 162.97 289.729 150.925 290.813C138.88 291.896 131.524 319.531 134.494 352.538C137.464 385.546 149.635 411.425 161.68 410.342Z" fill="#474747"/>
<path d="M169.667 379.211C167.765 393.337 163.291 402.82 157.256 403.397C153.451 403.725 149.62 400.407 146.183 394.491C144.814 392.062 143.613 389.543 142.588 386.95C141.748 384.799 140.935 382.49 140.2 380.038C139.465 377.585 138.652 374.568 137.97 371.604C137.432 369.191 136.933 366.672 136.5 364.075C136.028 361.137 135.595 358.107 135.28 354.999C135.188 354.16 135.097 353.346 135.031 352.507C134.874 350.71 134.742 348.913 134.637 347.156C134.454 343.811 134.375 340.598 134.414 337.423C134.454 334.249 134.572 331.495 134.782 328.701C135.057 325.08 135.53 321.476 136.199 317.907C138.416 306.496 142.535 299.046 147.823 298.6C150.906 298.338 154.028 300.476 156.902 304.437C158.501 306.696 159.881 309.102 161.021 311.624C162.042 313.815 162.94 316.062 163.711 318.353C164.616 320.976 165.442 323.691 166.203 326.616C166.781 328.924 167.332 331.325 167.817 333.83C168.394 336.689 168.88 339.679 169.287 342.749C169.588 344.952 169.851 347.221 170.047 349.503C170.047 349.897 170.113 350.29 170.139 350.684C170.415 353.937 170.585 357.124 170.651 360.219C170.717 363.144 170.651 365.99 170.651 368.731C170.428 372.443 170.113 375.945 169.667 379.211Z" fill="#474747"/>
<path d="M169.286 342.736L136.487 364.075C136.014 361.137 135.581 358.108 135.267 354.999L167.804 333.83C168.394 336.676 168.879 339.666 169.286 342.736Z" fill="black"/>
<path d="M170.651 360.206L140.213 380.024C139.386 377.401 138.665 374.555 137.982 371.591L170.152 350.605C170.414 353.95 170.532 357.111 170.651 360.206Z" fill="black"/>
<path d="M169.667 379.211L146.183 394.491C144.814 392.063 143.613 389.543 142.588 386.95L170.533 368.732C170.432 372.238 170.143 375.736 169.667 379.211Z" fill="black"/>
<path d="M166.203 326.603L134.637 347.142C134.454 343.798 134.375 340.584 134.414 337.41L163.711 318.34C164.616 320.91 165.442 323.678 166.203 326.603Z" fill="black"/>
<path d="M161.021 311.611L134.781 328.662C135.056 325.041 135.529 321.437 136.198 317.868L156.901 304.397C158.501 306.665 159.88 309.081 161.021 311.611Z" fill="black"/>
<path d="M162.662 175.926C169.891 191.166 169.077 206.092 160.707 210.106C152.336 214.12 139.715 204.951 132.46 189.711C125.205 174.47 126.149 158.914 134.52 154.94C142.89 150.966 155.459 160.698 162.662 175.926Z" fill="black"/>
<path d="M147.613 171.453C150.105 172.895 152.23 174.893 153.822 177.291C155.415 179.689 156.433 182.422 156.797 185.277C157.063 187.9 156.514 190.541 155.225 192.841C153.937 195.141 151.97 196.988 149.594 198.131C141.394 202.066 128.511 213.464 124.142 243.644C118.303 283.936 132.774 321.212 154.553 331.875C155.924 332.562 157.141 333.521 158.129 334.694C159.117 335.866 159.856 337.228 160.3 338.696C162.478 345.765 164.236 358.16 153.228 364.81C137.235 374.45 115.181 345.136 110.878 338.014C106.05 330.026 86.5537 299.977 91.9853 246.044C97.0888 195.455 121.203 176.66 135.044 170.535C137.053 169.643 139.251 169.26 141.444 169.42C143.636 169.581 145.755 170.279 147.613 171.453Z" fill="#474747"/>
<path d="M135.017 170.535C135.017 170.535 117.804 178.313 108.607 193.934C99.4106 209.555 88.718 245.834 89.6364 255.999C90.5548 266.164 97.1934 303.466 127.5 327.285C157.806 351.104 159.341 336.466 159.341 336.466C159.341 336.466 141.735 324.504 135.621 313.014C129.507 301.525 122.265 265.128 123.223 251.5C124.181 237.873 122.042 195.678 150.538 178.746C150.538 178.772 149.384 166.862 135.017 170.535Z" fill="#606060"/>
<path d="M146.261 370.266C140.843 370.266 133.89 367.84 125.27 360.377C118.538 354.353 112.651 347.449 107.768 339.85L107.309 339.089C91.1849 312.647 84.8087 281.169 88.3904 245.755C93.9532 190.563 121.806 172.555 133.535 167.374C136.079 166.238 138.865 165.748 141.644 165.95C144.423 166.151 147.109 167.037 149.463 168.528C155.8 172.581 159.526 178.26 160.234 184.976C160.574 188.322 159.874 191.692 158.231 194.628C156.588 197.564 154.081 199.922 151.05 201.384C144.11 204.742 131.83 214.749 127.566 244.221C122.2 281.195 134.716 318.327 156.036 328.767C157.842 329.664 159.446 330.922 160.748 332.463C162.05 334.003 163.023 335.794 163.606 337.725C167.712 351.117 164.564 362.108 154.973 367.892C152.342 369.467 149.328 370.288 146.261 370.266ZM140.489 172.948C139.097 172.947 137.721 173.238 136.448 173.801C125.952 178.457 100.67 194.905 95.4881 246.398C92.0639 280.29 98.1121 310.247 113.397 335.404L113.882 336.191C118.377 343.163 123.787 349.502 129.967 355.038C136.054 360.285 144.7 365.793 151.365 361.78C159.945 356.534 159.106 346.933 156.902 339.732C156.597 338.725 156.092 337.791 155.415 336.986C154.738 336.181 153.905 335.522 152.966 335.049C128.642 323.153 114.735 283.635 120.599 243.145C125.336 210.434 139.807 198.905 148.02 194.944C149.744 194.12 151.173 192.786 152.112 191.122C153.05 189.458 153.454 187.546 153.267 185.645C152.782 181.093 150.25 177.316 145.724 174.43C144.155 173.449 142.339 172.935 140.489 172.948Z" fill="black"/>
<path d="M91.631 277.024C95.2386 273.025 100.068 270.332 105.367 269.364C109.395 268.603 116.401 268.381 118.736 272.551C120.403 275.542 124.981 272.866 123.315 269.928C119.904 263.842 111.507 263.2 105.394 264.065C98.6596 265.016 92.4668 268.28 87.8788 273.299C85.5959 275.817 89.335 279.582 91.631 277.05V277.024Z" fill="black"/>
<path d="M93.4149 259.514C93.4149 257.101 97.1934 256.484 98.9383 255.999C101.914 255.068 105.005 254.556 108.122 254.478C112.491 254.478 117.555 256.432 118.933 261.036C119.93 264.288 125.06 262.898 124.063 259.619C121.898 252.536 114.525 249.126 107.532 249.218C103.417 249.415 99.3526 250.201 95.4616 251.553C91.7094 252.759 88.1539 255.238 88.167 259.567C88.167 262.977 93.4149 262.99 93.4149 259.567V259.514Z" fill="black"/>
<path d="M94.9762 243.132C94.4514 240.627 97.4952 239.04 99.4107 238.371C102.385 237.27 105.568 236.849 108.726 237.138C113.554 237.689 118.657 241.138 118.998 246.319C119.235 249.703 124.548 249.729 124.246 246.319C123.669 237.833 116.204 232.325 108.148 231.734C100.801 231.21 87.7472 234.699 89.7808 244.496C90.4761 247.841 95.5928 246.424 94.8975 243.08L94.9762 243.132Z" fill="black"/>
<path d="M124.994 181.684C125.848 180.74 126.962 180.069 128.196 179.755C129.878 179.127 131.649 178.769 133.444 178.693C136.907 178.693 139.124 181.133 140.725 183.939C143.756 189.278 144.346 197.279 138.39 200.899C135.477 202.669 138.14 207.26 141.014 205.476C142.883 204.316 144.479 202.764 145.691 200.928C146.903 199.091 147.702 197.014 148.033 194.839C148.693 189.827 147.544 184.744 144.792 180.503C142.168 176.332 138.232 173.197 133.142 173.407C128.511 173.591 123.249 175.165 120.416 179.021C120.237 179.316 120.118 179.644 120.066 179.985C120.014 180.326 120.03 180.674 120.113 181.01C120.196 181.345 120.344 181.66 120.549 181.938C120.754 182.215 121.012 182.45 121.308 182.628C121.919 182.971 122.64 183.063 123.319 182.884C123.997 182.705 124.579 182.27 124.942 181.67L124.994 181.684Z" fill="black"/>
<path d="M113.856 192.937C114.958 189.947 118.881 189.002 121.728 189.383C125.128 189.996 128.157 191.905 130.177 194.708C132.215 197.568 133.245 201.024 133.105 204.533C132.965 208.042 131.662 211.405 129.403 214.093C127.146 216.638 130.885 220.402 133.155 217.844C135.709 214.93 137.416 211.373 138.091 207.558C138.766 203.743 138.384 199.816 136.986 196.203C134.218 189.278 127.133 183.362 119.34 184.031C117.04 184.124 114.816 184.88 112.937 186.209C111.058 187.538 109.605 189.383 108.752 191.52C108.557 192.188 108.636 192.906 108.971 193.516C109.305 194.126 109.868 194.578 110.537 194.773H110.602C111.28 194.945 111.998 194.848 112.607 194.504C113.215 194.159 113.667 193.593 113.869 192.924L113.856 192.937Z" fill="black"/>
<path d="M104.934 207.968C109.054 203.784 115.548 201.895 120.875 204.951C123.231 206.235 124.995 208.385 125.795 210.945C126.818 214.434 126.123 218.185 125.506 221.674C125.335 222.352 125.431 223.07 125.776 223.678C126.12 224.287 126.686 224.739 127.356 224.94C127.687 225.037 128.033 225.067 128.376 225.03C128.718 224.992 129.05 224.888 129.352 224.722C129.654 224.556 129.921 224.333 130.137 224.064C130.352 223.796 130.513 223.487 130.61 223.156V223.091C131.423 218.526 132.263 213.634 130.767 209.109C129.527 205.401 126.95 202.287 123.538 200.374C116.165 196.124 106.955 198.328 101.169 204.217C98.7681 206.656 102.481 210.421 104.921 207.968H104.934Z" fill="black"/>
<path d="M100.789 221.478C101.563 219.3 104.2 218.29 106.325 218.028C109.116 217.79 111.914 218.383 114.368 219.733C117.086 221.195 119.303 223.439 120.73 226.176C122.157 228.912 122.729 232.014 122.371 235.079C122.371 235.775 122.647 236.442 123.139 236.934C123.632 237.426 124.299 237.702 124.995 237.702C125.683 237.679 126.338 237.395 126.825 236.908C127.312 236.421 127.596 235.767 127.619 235.079C127.998 230.864 127.067 226.636 124.954 222.969C122.841 219.303 119.648 216.377 115.811 214.592C108.989 211.496 98.4668 211.772 95.5542 220.061C95.3593 220.729 95.4378 221.447 95.7725 222.057C96.1071 222.667 96.6704 223.119 97.3384 223.314H97.4041C98.0822 223.489 98.8017 223.394 99.4111 223.049C100.02 222.704 100.472 222.136 100.671 221.464L100.789 221.478Z" fill="black"/>
<path d="M94.4383 287.294C104.152 287.096 113.802 285.668 123.157 283.044C126.45 282.126 125.047 276.998 121.754 277.929C112.856 280.427 103.678 281.793 94.4383 281.995C91.0271 282.061 91.014 287.373 94.4383 287.241V287.294Z" fill="black"/>
<path d="M97.3114 301.485C103.163 302.036 109.211 302.548 114.957 300.961C119.953 299.708 124.29 296.611 127.093 292.291C128.878 289.366 124.286 286.704 122.501 289.668C117.358 298.102 105.708 297.026 97.3114 296.226C96.6155 296.226 95.9481 296.502 95.456 296.994C94.9639 297.486 94.6875 298.153 94.6875 298.849C94.7073 299.539 94.9901 300.194 95.478 300.682C95.9658 301.17 96.6218 301.453 97.3114 301.472V301.485Z" fill="black"/>
<path d="M100.998 315.047C107.322 314.09 113.948 314.864 119.957 312.332C125.204 310.155 129.285 306.063 129.967 300.305C129.967 299.609 129.69 298.942 129.198 298.45C128.706 297.958 128.039 297.682 127.343 297.682C126.654 297.705 126 297.988 125.513 298.475C125.026 298.963 124.742 299.617 124.719 300.305C124.247 304.24 120.075 306.863 116.624 307.952C111.179 309.63 105.249 309.08 99.6472 309.932C99.3112 310.024 98.9967 310.182 98.7216 310.395C98.4464 310.609 98.2161 310.875 98.0437 311.177C97.6956 311.789 97.6046 312.513 97.7907 313.191C97.9769 313.87 98.425 314.446 99.0364 314.794C99.6478 315.143 100.372 315.234 101.051 315.047H100.998Z" fill="black"/>
<path d="M131.305 312.241C133.01 318.104 127.815 323.717 122.803 325.881C120.062 327.033 117.055 327.398 114.118 326.934C111.182 326.471 108.433 325.198 106.18 323.258C103.556 321.028 99.8304 324.766 102.428 327.009C105.526 329.749 109.35 331.534 113.44 332.151C117.53 332.768 121.711 332.189 125.479 330.485C132.656 327.206 138.796 319.009 136.421 310.811C135.464 307.532 130.334 308.922 131.305 312.214V312.241Z" fill="black"/>
<path d="M138.678 325.829C141.302 337.856 123.315 344.309 114.774 338.473C111.94 336.545 109.29 341.096 112.15 343.05C118.553 347.431 127.894 346.342 134.454 342.972C141.368 339.443 145.501 332.164 143.821 324.425C143.087 321.094 137.97 322.497 138.691 325.829H138.678Z" fill="black"/>
<path d="M132.394 360.678C130.272 360.69 128.156 360.47 126.083 360.022L127.395 354.868C127.5 354.868 138.875 357.491 146.051 350.212C151.522 344.637 149.292 332.452 149.266 332.321L154.513 331.324C154.632 331.928 157.308 346.355 149.882 353.937C147.57 356.178 144.83 357.93 141.825 359.088C138.82 360.247 135.612 360.787 132.394 360.678Z" fill="black"/>
<path d="M446.664 337.568C448.382 337.738 450.6 344.349 450.101 349.595C449.603 354.842 450.862 362.265 453.538 370.227C456.215 378.188 478.768 399.148 481.09 402.886C484.593 408.604 482.756 411.726 475.934 426.954C469.112 442.181 466.068 448.884 460.702 450.09C455.336 451.297 448.028 447.952 443.777 444.844C438.792 441.158 445.863 441.512 449.327 441.88C449.327 441.88 456.858 443.69 459.823 441.198C460.702 440.476 462.447 434.259 465.556 426.993C469.125 418.481 474.74 410.926 472.431 406.361C468.993 399.489 463.995 395.869 456.963 389.166C450.665 383.12 444.735 369.65 443.2 361.623C441.665 353.596 444.945 341.03 446.664 337.568Z" fill="black"/>
<path d="M384.056 445.251C385.368 449.041 377.93 453.737 371.015 453.028C364.101 452.32 360.52 441.867 358.683 437.158C357.253 433.59 354.629 426.849 354.629 421.419C354.629 412.814 357.187 410.283 363.393 409.037C371.986 407.319 376.972 409.378 378.69 411.096C380.409 412.815 377.378 411.66 373.889 411.66C370.496 412.207 367.364 413.814 364.941 416.251C362.317 419.464 363.393 427.386 364.941 431.728C368.378 441.368 373.521 445.119 376.972 445.473C380.422 445.828 383.191 442.863 384.056 445.251Z" fill="#2BBA00"/>
<path d="M386.68 443.939C387.992 447.729 380.553 452.425 373.639 451.717C366.725 451.008 363.144 440.555 361.307 435.846C359.877 432.279 357.253 425.537 357.253 420.107C357.253 411.503 359.641 409.312 365.846 408.066C374.44 406.348 379.596 408.066 381.314 409.785C383.033 411.503 379.596 413.221 376.158 413.221C374.203 413.221 369.507 412.578 367.565 414.939C364.941 418.153 366.017 426.075 367.565 430.416C371.002 440.056 376.145 443.808 379.596 444.162C383.046 444.516 385.814 441.552 386.68 443.939Z" fill="black"/>
<path opacity="0.72" d="M281.722 329.069C285.011 329.069 287.678 326.021 287.678 322.261C287.678 318.502 285.011 315.454 281.722 315.454C278.432 315.454 275.765 318.502 275.765 322.261C275.765 326.021 278.432 329.069 281.722 329.069Z" fill="#0DFF00"/>
<path opacity="0.15" d="M281.722 331.613C286.243 331.613 289.908 327.426 289.908 322.261C289.908 317.097 286.243 312.91 281.722 312.91C277.2 312.91 273.535 317.097 273.535 322.261C273.535 327.426 277.2 331.613 281.722 331.613Z" fill="#0DFF00"/>
<path opacity="0.15" d="M281.499 334.171C286.846 334.171 291.181 329.027 291.181 322.681C291.181 316.336 286.846 311.191 281.499 311.191C276.151 311.191 271.816 316.336 271.816 322.681C271.816 329.027 276.151 334.171 281.499 334.171Z" fill="#0DFF00"/>
<path d="M281.722 326.511C283.599 326.511 285.12 324.608 285.12 322.261C285.12 319.914 283.599 318.012 281.722 318.012C279.846 318.012 278.324 319.914 278.324 322.261C278.324 324.608 279.846 326.511 281.722 326.511Z" fill="white"/>
<path opacity="0.54" d="M378.664 313.854C375.476 300.043 321.357 296.528 314.155 308.411C311.793 312.346 312.987 322.406 319.914 329.895C328.639 339.312 354.563 333.698 362.081 331.862C369.953 329.947 381.144 324.57 378.664 313.854Z" fill="#39F900"/>
<path opacity="0.23" d="M385.276 311.336C381.485 288.684 313.774 282.926 304.866 303.138C301.953 309.696 303.79 326.747 312.842 338.945C324.047 354.133 356.033 344.191 365.19 340.939C374.702 337.568 388.189 328.609 385.276 311.336Z" fill="#39F900"/>
<path opacity="0.32" d="M381.879 312.162C378.376 293.524 314.85 293.616 310.914 306.732C308.29 312.083 308.198 321.579 316.162 331.652C326.107 344.244 355.062 339.522 363.393 336.899C372.065 334.276 384.581 326.524 381.879 312.162Z" fill="#39F900"/>
<path opacity="0.32" d="M383.072 310.667C379.569 292.029 314.942 286.271 306.978 302.64C304.354 307.991 305.666 325.514 313.538 335.587C323.483 348.179 353.75 342.145 362.081 339.522C376.513 335.587 385.775 325.016 383.072 310.667Z" fill="#39F900"/>
<path d="M373.889 313.29C372.275 307.86 328.625 304.922 320.098 311.978C317.474 314.116 315.755 315.782 321.41 321.16C329.281 326.406 357.305 324.544 363.393 322.471C372.577 321.16 375.109 317.408 373.889 313.29Z" fill="white"/>
<path opacity="0.53" d="M376.198 312.647C374.44 302.85 324.034 300.161 317.474 310.654C314.653 314.523 314.85 317.212 318.786 323.77C327.379 333.226 355.521 329.016 363.393 326.393C373.154 323.14 377.536 320.071 376.198 312.647Z" fill="white"/>
</g>
<defs>
<clipPath id="clip0_209_192">
<rect width="1212" height="1196" fill="white" transform="translate(-370)"/>
</clipPath>
</defs>
</svg>
